<?xml version="1.0"?>
<svg xmlns="http://www.w3.org/2000/svg" height="512px" viewBox="1 -32 511.99899 511" width="512px" class=""><g><path d="m501.871094 437.671875h-491.746094v-309.410156l208.902344 144.230469c11.128906 7.683593 24.050781 11.523437 36.972656 11.523437s25.84375-3.839844 36.96875-11.523437l208.902344-144.230469zm0 0" fill="#ece9e8" data-original="#ECE9E8" class="active-path" style="fill:#FFFFFF" data-old_color="#ffffff"/><path d="m354.140625 128.261719h147.730469l-207.710938 143.886719c-22.957031 15.902343-53.367187 15.902343-76.320312 0l-207.714844-143.886719h149.757812" fill="#ece9e8" data-original="#ECE9E8" class="active-path" style="fill:#FFFFFF" data-old_color="#ffffff"/><path d="m354.925781 109.550781c0 54.632813-44.292969 98.925781-98.925781 98.925781-54.636719 0-98.925781-44.292968-98.925781-98.925781 0-54.636719 44.289062-98.925781 98.925781-98.925781 54.632812 0 98.925781 44.289062 98.925781 98.925781zm0 0" fill="#ffde91" data-original="#FFDE91" class="" style="fill:#FFCA28" data-old_color="#FFca28"/><path d="m512 128.265625c0-.03125-.007812-.0625-.007812-.097656-.003907-.425781-.03125-.851563-.089844-1.28125 0-.007813 0-.011719 0-.019531-.058594-.40625-.144532-.8125-.253906-1.214844-.019532-.074219-.039063-.148438-.058594-.21875-.019532-.0625-.03125-.128906-.050782-.191406-.101562-.320313-.21875-.628907-.347656-.933594-.027344-.0625-.058594-.125-.085937-.1875-.34375-.761719-.773438-1.472656-1.28125-2.113282-.039063-.050781-.074219-.101562-.117188-.152343-.25-.308594-.519531-.597657-.808593-.875-.050782-.050781-.105469-.101563-.160157-.152344-.300781-.273437-.609375-.53125-.9375-.769531-.035156-.027344-.078125-.050782-.117187-.078125-.34375-.242188-.703125-.464844-1.074219-.664063-.011719-.003906-.023437-.011718-.03125-.019531-.003906 0-.007813 0-.011719-.003906-.375-.195313-.765625-.363281-1.164062-.511719-.058594-.023438-.117188-.046875-.175782-.066406-.378906-.132813-.761718-.242188-1.15625-.328125-.074218-.015625-.148437-.03125-.222656-.046875-.394531-.078125-.789062-.140625-1.195312-.171875-.042969-.003907-.085938 0-.128906-.003907-.214844-.015624-.433594-.027343-.652344-.027343h-136.171875c.222656-2.832031.335937-5.695313.335937-8.585938 0-18.789062-4.859375-37.316406-14.050781-53.582031-2.75-4.867188-8.929687-6.582031-13.796875-3.832031-4.871094 2.75-6.585938 8.929687-3.835938 13.796875 7.480469 13.230468 11.429688 28.316406 11.429688 43.617187 0 48.964844-39.832031 88.796875-88.796875 88.796875-42.910156 0-78.804687-30.589844-87.027344-71.105468-.058593-.570313-.171875-1.117188-.320312-1.652344-.953125-5.207032-1.453125-10.5625-1.453125-16.039063 0-48.960937 39.835937-88.796875 88.800781-88.796875 7.117187 0 14.199219.84375 21.050781 2.507813 5.433594 1.320312 10.910156-2.015625 12.230469-7.453125 1.320313-5.433594-2.015625-10.910156-7.449219-12.230469-8.414062-2.042969-17.105468-3.078125-25.832031-3.078125-60.132813 0-109.054687 48.921875-109.054687 109.054688 0 2.886718.117187 5.75.335937 8.585937h-138.140625c-.226562 0-.449219.011719-.671875.027344-.03125 0-.066406 0-.101563.003906-.410156.03125-.808593.09375-1.207031.171875-.070312.011719-.140625.027344-.210937.042969-.394532.085937-.785156.195312-1.164063.332031-.058593.019531-.113281.039062-.167969.0625-.402343.148438-.792968.316406-1.167968.511719-.003906.003906-.007813.003906-.011719.007812-.011719.003907-.019531.011719-.03125.019531-.371094.195313-.730469.417969-1.078125.660157-.035156.027343-.078125.050781-.113281.078125-.328125.238281-.640625.496094-.9375.773437-.054688.050781-.109375.097657-.164063.148438-.285156.277343-.554687.570312-.808594.878906-.039062.046875-.078124.097656-.113281.148437-.507812.640626-.9375 1.351563-1.28125 2.117188-.027343.0625-.058593.125-.085937.1875-.128906.300781-.246094.613281-.347656.933594-.019532.0625-.03125.125-.050782.1875-.019531.074218-.039062.148437-.058594.222656-.109374.402344-.199218.804688-.2539058 1.210938 0 .007812 0 .011718-.0039062.019531-.0585938.429687-.0820312.855469-.0859375 1.28125 0 .035156-.0078125.066406-.0078125.097656v309.410156c0 .035157.00390625.070313.00390625.109375.00390625.210938.01562495.421875.03515625.632813.0078125.125.0117187.25.0273437.371093.0195313.203126.0546878.402344.0898438.601563.023438.128906.039062.265625.066406.394531.039063.175782.089844.347656.136719.523438.039063.148437.074219.300781.121094.449218.046875.144532.105469.289063.160156.429688.0625.171875.121094.34375.195313.507812.050781.121094.113281.242188.171874.359376.089844.183593.175782.367187.273438.542968.0625.109375.128906.214844.195312.320313.109376.179687.222657.363281.339844.535156.023438.027344.039063.0625.058594.089844.042969.058593.09375.109375.136719.167969.164062.222656.335937.4375.519531.644531.089844.105469.183594.207031.277344.300781.167968.179688.347656.351562.535156.519531.09375.085938.191406.179688.289062.265625.273438.226563.554688.441406.851563.640625.085937.054688.175781.105469.261719.160157.226562.140624.460937.28125.703125.40625.109375.058593.226562.109374.339843.164062.226563.109375.457032.210938.691407.300781.113281.042969.226562.085938.34375.125.246093.085938.496093.160157.753906.226563.105469.027344.214844.058594.320313.082031.273437.0625.550781.109375.828124.144531.097657.015625.191407.035156.285157.046875.347656.035157.699219.058594 1.058593.058594.023438 0 .046876.003906.070313.003906h.023437 491.707032c.097656 0 .191406-.011719.289062-.015625.195313-.003906.394532-.011718.589844-.027344.160156-.015624.316406-.035156.472656-.058593.164063-.019531.328125-.042969.488282-.074219.175781-.03125.347656-.070312.519531-.113281.144531-.03125.289062-.066407.429687-.109375.175782-.046875.347656-.105469.515625-.164063.140625-.046875.28125-.097656.421875-.152343.160156-.066407.316406-.132813.472656-.203126.148438-.070312.292969-.136718.4375-.210937.140626-.074219.273438-.148437.410157-.226563.152343-.089843.304687-.179687.457031-.277343.117188-.078125.234375-.15625.347656-.238281.15625-.109376.304688-.222657.453125-.339844.113281-.085938.21875-.179688.324219-.269532.140625-.121093.277344-.242187.410156-.371093.113282-.109375.21875-.226563.328125-.339844.113281-.121094.226563-.242187.332031-.367187.125-.144532.242188-.296876.355469-.449219.0625-.078125.128907-.152344.1875-.234375.023438-.03125.039063-.066406.0625-.097656.121094-.171876.230469-.351563.339844-.53125.066406-.105469.136719-.214844.195313-.324219.101562-.175781.1875-.355469.273437-.539063.058594-.121094.125-.238281.175781-.363281.074219-.167969.132813-.339844.195313-.507813.054687-.144531.113281-.285156.160156-.429687.046875-.152344.085937-.308594.125-.464844.046875-.167969.09375-.335937.128906-.503906.03125-.136719.050781-.277344.074219-.417969.03125-.191406.066406-.382812.085938-.578125.015624-.128906.023437-.261719.03125-.394531.015624-.203125.027343-.40625.03125-.613281 0-.039063.003906-.078125.003906-.117188v-309.410156zm-491.746094 19.335937 191.816406 132.875c1.832032 1.269532 3.714844 2.441407 5.628907 3.53125-1.082031.605469-2.15625 1.230469-3.210938 1.886719-54.425781 33.992188-155.222656 104.675781-194.234375 132.207031zm204.964844 155.472657c18.953125-11.839844 43.4375-11.816407 62.371094.050781 49.6875 31.136719 138.628906 93.4375 182.492187 124.421875h-428.074219c44.050782-31.003906 133.375-93.347656 183.210938-124.472656zm73.125-17.113281c-1.207031-.757813-2.4375-1.46875-3.679688-2.152344 1.789063-1.035156 3.542969-2.140625 5.261719-3.332032l191.816407-132.875v270.460938c-38.902344-27.554688-139.171876-98.117188-193.398438-132.101562zm-41.359375-67.355469c50.152344 0 92.496094-34.03125 105.171875-80.214844h107.222656l-182.164062 125.769531c-9.21875 6.367188-20.015625 9.730469-31.214844 9.730469-11.203125 0-21.996094-3.363281-31.21875-9.730469l-182.164062-125.769531h109.191406c12.679687 46.183594 55.023437 80.214844 105.175781 80.214844zm0 0" data-original="#000000" class="" style="fill:#212533" data-old_color="#000000"/><path d="m49.414062 311.507812c5.589844 0 10.125-4.535156 10.125-10.125v-66.867187c0-5.589844-4.535156-10.125-10.125-10.125-5.59375 0-10.128906 4.535156-10.128906 10.125v66.867187c0 5.589844 4.535156 10.125 10.128906 10.125zm0 0" data-original="#000000" class="" style="fill:#212533" data-old_color="#000000"/><path d="m53.527344 330.757812-.226563-.066406c-5.351562-1.617187-11.003906 1.410156-12.621093 6.769532-1.617188 5.351562 1.414062 11.003906 6.769531 12.617187l.230469.070313c.972656.296874 1.960937.4375 2.929687.4375 4.347656 0 8.371094-2.828126 9.691406-7.207032 1.613281-5.355468-1.417969-11.003906-6.773437-12.621094zm0 0" data-original="#000000" class="" style="fill:#212533" data-old_color="#000000"/><path d="m252.046875 165.261719c1.96875 1.144531 4.359375 1.710937 7.160156 1.710937 2.695313 0 5.054688-.566406 7.078125-1.710937 2.023438-1.140625 3.035156-2.695313 3.035156-4.667969v-101.164062c0-1.867188-.933593-3.421876-2.800781-4.667969-1.867187-1.242188-3.945312-1.867188-6.226562-1.867188-1.554688 0-2.957031.519531-4.199219 1.554688l-18.367188 14.007812c-2.59375 1.664063-3.890624 4.101563-3.890624 7.316407 0 2.078124.625 3.945312 1.871093 5.601562 1.242188 1.660156 2.800781 2.492188 4.667969 2.492188 1.453125 0 2.695312-.46875 3.734375-1.402344l4.980469-4.980469v83.109375c0 1.972656.984375 3.527344 2.957031 4.667969zm0 0" data-original="#000000" class="" style="fill:#212533" data-old_color="#000000"/><path d="m313.152344 41.335938.230468.066406c.980469.296875 1.96875.441406 2.941407.441406 4.34375 0 8.363281-2.820312 9.6875-7.195312 1.621093-5.351563-1.402344-11.007813-6.753907-12.628907l-.230468-.070312c-5.347656-1.617188-11.007813 1.402343-12.628906 6.757812-1.621094 5.351563 1.402343 11.007813 6.753906 12.628907zm0 0" data-original="#000000" class="" style="fill:#212533" data-old_color="#000000"/></g> </svg>
