<?xml version="1.0"?>
<svg xmlns="http://www.w3.org/2000/svg" xmlns:xlink="http://www.w3.org/1999/xlink" version="1.1" id="Capa_1" x="0px" y="0px" viewBox="0 0 512 512" style="enable-background:new 0 0 512 512;" xml:space="preserve" width="512px" height="512px" class=""><g><circle style="fill:#FFD15C;" cx="256" cy="256" r="256" data-original="#FFD15C" class=""/><path style="fill:#5C5E70;" d="M255.997,46.258c25.554,0,49.579,9.952,67.649,28.021c18.069,18.069,28.021,42.095,28.021,67.649  v85.156c0,14.793-12.035,26.828-26.828,26.828H187.155c-14.793,0-26.828-12.035-26.828-26.828v-85.156  c0-25.554,9.952-49.579,28.021-67.649S230.443,46.258,255.997,46.258 M255.997,0.001L255.997,0.001  c-83.1,0-150.465,67.366-150.465,150.465v105.098c0,36.176,29.326,65.503,65.503,65.503h169.927  c36.175,0,65.503-29.326,65.503-65.503V150.466C406.462,67.367,339.097,0.001,255.997,0.001L255.997,0.001z" data-original="#5C5E70" class=""/><path style="fill:#070936" d="M462.89,260.504V406.81c-7.91,10.836-16.645,21.023-26.122,30.469  c-16.415,16.363-35.035,30.521-55.38,41.963C344.325,500.099,301.558,512,256,512c-85.013,0-160.34-41.441-206.9-105.211V260.504  c0-16.468,13.354-29.821,29.821-29.821h354.147C449.536,230.682,462.89,244.036,462.89,260.504z" data-original="#FF525D" class="" data-old_color="#060835"/><path style="fill:#81849A" d="M309.285,374.356c0-30.776-26.09-55.46-57.36-53.138c-26.655,1.979-47.926,23.908-49.161,50.609  c-0.887,19.168,8.361,36.227,22.839,46.295c5.681,3.951,8.971,10.515,8.971,17.434v17.177c0,11.615,9.032,21.507,20.639,21.92  c12.187,0.434,22.202-9.317,22.202-21.407v-17.693c0-6.99,3.414-13.535,9.138-17.547  C300.296,408.369,309.285,392.416,309.285,374.356z" data-original="#494B5B" class="active-path" data-old_color="#82859A"/></g> </svg>
