<?xml version="1.0" encoding="utf-8"?>
<!-- Generator: Adobe Illustrator 22.1.0, SVG Export Plug-In . SVG Version: 6.00 Build 0)  -->
<svg xmlns="http://www.w3.org/2000/svg" xmlns:xlink="http://www.w3.org/1999/xlink" version="1.1" id="Layer_1" x="0px" y="0px" viewBox="0 0 512 512" style="enable-background:new 0 0 512 512;" xml:space="preserve" width="512" height="512">
<style type="text/css">
	.st0{fill:#FF624B;}
	.st1{fill:#FFC34C;}
	.st2{fill:#F9BB32;}
	.st3{fill:#DB9C2E;}
	.st4{fill:#FF4B34;}
	.st5{fill:#FF9079;}
	.st6{fill:#FCE575;}
	.st7{fill:#FFD551;}
	.st8{fill:#FFF4C1;}
	.st9{fill:#FFB74B;}
	.st10{fill:#EACF32;}
	.st11{fill:#99AF17;}
	.st12{fill:#CCC033;}
	.st13{fill:#FCDA4F;}
	.st14{fill:#FFA730;}
	.st15{fill:#FFEACF;}
	.st16{fill:#FFD59A;}
	.st17{fill:#FFDF74;}
	.st18{fill:#E58D23;}
	.st19{fill:#BF6C0D;}
	.st20{fill:#A56021;}
	.st21{fill:#8C4C17;}
	.st22{fill:#FFEA63;}
	.st23{fill:#FCF9DE;}
</style>
<g>
	<g>
		<path class="st18" d="M137.598,447.042h236.805c-53.511-19.855-43.584-119.129-43.584-119.129H181.181h149.637H181.181    C181.181,327.913,191.109,427.187,137.598,447.042h236.805H137.598z"/>
	</g>
	<g>
		<path class="st19" d="M223.355,385.903h110.198c-5.579-29.505-2.735-57.989-2.735-57.989H181.181c0,0,9.928,99.274-43.584,119.129    h82.394C226.404,416.449,223.355,385.903,223.355,385.903z"/>
	</g>
	<g>
		<path class="st14" d="M336.306,439.544c-1.501,0-3.004-0.56-4.169-1.686c-14.844-14.349-21.918-35.032-22.212-35.905    c-1.057-3.141,0.633-6.543,3.773-7.6c3.133-1.058,6.541,0.631,7.599,3.77c0.111,0.325,6.528,18.878,19.18,31.107    c2.383,2.303,2.447,6.102,0.145,8.484C339.443,438.932,337.876,439.544,336.306,439.544z"/>
	</g>
	<g>
		<path class="st14" d="M402.147,470.287H109.853c-4.418,0-8-3.582-8-8v-7.245c0-4.418,3.582-8,8-8h292.294c4.418,0,8,3.582,8,8    v7.245C410.147,466.705,406.565,470.287,402.147,470.287z"/>
	</g>
	<g>
		<path class="st18" d="M165.114,461.852v-6.375c0-4.658,3.776-8.435,8.435-8.435h-63.261c-4.659,0-8.435,3.776-8.435,8.435v6.375    c0,4.658,3.776,8.435,8.435,8.435h63.261C168.89,470.287,165.114,466.51,165.114,461.852z"/>
	</g>
	<g>
		<path class="st14" d="M461.735,41.713H50.265c-8.734,0-15.815,7.081-15.815,15.815v254.404v14.528v20.131    c0,14.558,11.801,26.359,26.359,26.359h390.384c14.558,0,26.359-11.801,26.359-26.359V326.46v-14.528V57.529    C477.551,48.794,470.47,41.713,461.735,41.713z"/>
	</g>
	<g>
		<path class="st8" d="M50.264,310.645V67.529c0-5.523,4.477-10,10-10h391.472c5.523,0,10,4.477,10,10v243.116H50.264z"/>
	</g>
	<g>
		<circle class="st17" cx="256" cy="342.441" r="19.613"/>
	</g>
	<g>
		<circle class="st18" cx="124.069" cy="342.441" r="15.815"/>
	</g>
	<g>
		<path class="st7" d="M249.387,342.441c0-8.55,5.481-15.802,13.113-18.487c-2.037-0.716-4.218-1.126-6.5-1.126    c-10.832,0-19.613,8.781-19.613,19.613s8.781,19.613,19.613,19.613c2.282,0,4.463-0.41,6.5-1.126    C254.868,358.243,249.387,350.991,249.387,342.441z"/>
	</g>
	<g>
		<path class="st2" d="M408.613,276.77h-312c-6.627,0-12-5.373-12-12V103.404c0-6.627,5.373-12,12-12h312c6.627,0,12,5.373,12,12    V264.77C420.613,271.397,415.241,276.77,408.613,276.77z"/>
	</g>
	<g>
		<path class="st19" d="M408.613,91.404h-312c-6.627,0-12,5.372-12,12v33.756h336v-33.756    C420.613,96.776,415.241,91.404,408.613,91.404z"/>
	</g>
	<g>
		<path class="st6" d="M274.254,254.417h-159c-4.971,0-9-4.029-9-9v-80c0-4.971,4.029-9,9-9h159c4.971,0,9,4.029,9,9v80    C283.254,250.387,279.225,254.417,274.254,254.417z"/>
	</g>
	<g>
		<path class="st0" d="M393.482,191.538h-81.5c-2.209,0-4-1.791-4-4v-27c0-2.209,1.791-4,4-4h81.5c2.209,0,4,1.791,4,4v27    C397.482,189.747,395.691,191.538,393.482,191.538z"/>
	</g>
	<g>
		<path class="st6" d="M396.068,210.386l-22.981-22.981l5.606-5.606c1.205-1.205,0.447-3.269-1.251-3.408l-27.993-2.285    c-1.23-0.1-2.256,0.926-2.156,2.156l2.285,27.993c0.139,1.699,2.202,2.457,3.408,1.251l5.606-5.606l22.981,22.98    c0.781,0.781,2.047,0.781,2.828,0l11.667-11.667C396.849,212.433,396.849,211.167,396.068,210.386z"/>
	</g>
	<g>
		<path class="st23" d="M440.508,125.295c-3.313,0-6-2.687-6-6V99.026c0-3.313,2.687-6,6-6s6,2.687,6,6v20.269    C446.508,122.608,443.821,125.295,440.508,125.295z"/>
	</g>
	<g>
		<path class="st23" d="M440.508,265.638c-3.313,0-6-2.687-6-6V144.781c0-3.313,2.687-6,6-6s6,2.687,6,6v114.856    C446.508,262.951,443.821,265.638,440.508,265.638z"/>
	</g>
	<g>
		<path class="st18" d="M84.449,346.591v-20.13v-14.528V57.529c0-8.735,7.081-15.815,15.815-15.815h-50    c-8.734,0-15.815,7.081-15.815,15.815v254.404v14.528v20.13c0,14.558,11.801,26.359,26.359,26.359h50    C96.251,372.95,84.449,361.148,84.449,346.591z"/>
	</g>
	<g>
		<path class="st6" d="M84.449,57.529H60.264c-5.523,0-10,4.477-10,10v243.116h34.185V57.529L84.449,57.529z"/>
	</g>
</g>
</svg>
