<?xml version="1.0" encoding="utf-8"?>
<!-- Generator: Adobe Illustrator 23.0.1, SVG Export Plug-In . SVG Version: 6.00 Build 0)  -->
<svg version="1.1" id="Calque_1" xmlns="http://www.w3.org/2000/svg" xmlns:xlink="http://www.w3.org/1999/xlink" x="0px" y="0px"
	 viewBox="0 0 595.28 841.89" style="enable-background:new 0 0 595.28 841.89;" xml:space="preserve">
<style type="text/css">
	.st0{fill:#FEC92A;stroke:#212533;stroke-miterlimit:10;}
	.st1{fill:#212533;stroke:#212533;stroke-miterlimit:10;}
	.st2{fill:none;stroke:#212533;stroke-miterlimit:10;}
	.st3{fill:#212533;}
</style>
<g id="XMLID_1_">
	<g id="XMLID_2_">
		<polygon id="XMLID_9_" class="st0" points="295.05,278.21 295.05,661.47 21.79,564.23 21.79,479.01 84.26,498.81 84.26,520.74 
			220.55,565.27 220.55,449.09 21.79,393.8 21.79,223.37 84.26,235.9 84.26,345.45 220.55,379.41 220.55,263.23 		"/>
	</g>
	<g id="XMLID_10_">
		<path id="XMLID_29_" class="st1" d="M295.05,170.88L18.01,213.33l277.04,53.07l277.04-53.07L295.05,170.88z M156.53,213.33
			L295.05,191l138.52,22.34L295.05,238.3L156.53,213.33z"/>
		<polygon id="XMLID_11_" class="st2" points="433.57,213.33 295.05,238.3 156.53,213.33 295.05,191 		"/>
	</g>
	<g id="XMLID_3_">
		<g id="XMLID_40_">
			<g id="XMLID_22_">
				<polygon class="st3" points="578.46,479.06 578.46,564.14 511.53,587.93 				"/>
				<polygon class="st3" points="578.46,223.82 578.46,479.06 528.64,494.81 528.64,233.81 				"/>
				<polygon class="st3" points="526.36,495.49 528.64,494.81 578.46,479.06 511.53,587.93 450.26,429.62 385.51,632.78 
					306.14,565.36 366.17,546.34 366.17,545.52 368.76,545.52 418.32,392.89 481.31,376.55 				"/>
				<polygon class="st3" points="385.51,632.78 306.14,661.02 306.14,565.36 				"/>
				<polygon class="st3" points="366.17,545.52 366.17,546.34 306.14,565.36 306.14,278.44 366.17,266.41 				"/>
			</g>
			<g id="XMLID_23_">
				<polyline class="st2" points="306.14,565.36 306.14,278.44 366.17,266.41 366.17,545.52 366.17,546.34 				"/>
				<polyline class="st2" points="528.64,494.81 528.64,233.81 578.46,223.82 578.46,479.06 				"/>
				<polyline class="st2" points="385.51,632.78 450.26,429.62 511.53,587.93 				"/>
				<polyline class="st2" points="385.51,632.78 306.14,661.02 306.14,565.36 				"/>
				<polyline class="st2" points="578.46,479.06 578.46,564.14 511.53,587.93 				"/>
				<polyline class="st2" points="481.31,376.55 526.36,495.49 526.36,495.54 				"/>
				<line class="st2" x1="368.76" y1="545.52" x2="418.32" y2="392.89"/>
				<line class="st2" x1="418.32" y1="392.89" x2="481.31" y2="376.55"/>
			</g>
		</g>
	</g>
</g>
</svg>
