<?xml version="1.0"?>
<svg xmlns="http://www.w3.org/2000/svg" xmlns:xlink="http://www.w3.org/1999/xlink" version="1.1" id="Capa_1" x="0px" y="0px" viewBox="0 0 512 512" style="enable-background:new 0 0 512 512;" xml:space="preserve" width="512px" height="512px" class=""><g><g>
	<path style="fill:#FFFFFF" d="M330.835,357.676c7.116,7.102,18.628,7.104,25.721,0.003l0,0c7.105-7.101,7.096-18.617-0.021-25.719   l-98.479-98.47l-0.047,0.049c-9.242,6.751-17.008,14.938-22.378,25.621c-5.361,10.222-12.233,18.273-22.254,17.162l0,0   c-9.959-0.998-18.578-17.022-10.211-33.605c11.449-22.766,31.335-40.404,54.249-51.046c-23.48-13.588-60.221-10.881-60.221-10.881   l0,0L154.333,219l-35.252,40.025c0,0-2.708,38.215,29.975,70.865c34.853,34.802,86.626,86.802,86.626,86.802   c7.117,7.102,18.622,7.096,25.717-0.005l0,0c7.103-7.1,7.092-18.61-0.016-25.711l7.23,7.212c7.102,7.104,18.622,7.108,25.715,0.002   l0,0c7.095-7.101,7.184-18.521,0.068-25.626l5.446,5.441c7.099,7.097,18.612,7.1,25.716-0.002l0,0   c7.094-7.108,7.082-18.622-0.018-25.721L330.835,357.676z" data-original="#FFE4C2" class="" data-old_color="#FFffff"/>
	<path style="fill:#EFEBEB" d="M357.653,333.181c37.21-33.615,33.897-74.156,33.897-74.156l-75.912-75.905   c-45.023-5.997-91.582,18.059-112.471,59.597c-8.367,16.582,0.251,32.607,10.211,33.605l0,0   c10.021,1.111,16.894-6.939,22.254-17.162c5.37-10.684,13.136-18.87,22.378-25.621L357.653,333.181z" data-original="#E2A975" class="" data-old_color="#efebeb"/>
	<g>
		<path style="fill:#BFBDBD" d="M391.55,259.025l-37.8-42.525l-37.967-33.361c-7.892-1.051-16.795-1.24-24.736-0.381    c-0.018,0.002,0.785-0.093,0,0c-0.024,0.003,4.594,4.601,4.594,4.601l71.666,71.666c0,0,4.803,30.765-21.849,61.858l11.078,11.077    c0.391,0.391,0.752,0.799,1.101,1.215l0.017,0.006C394.864,299.566,391.55,259.025,391.55,259.025z" data-original="#C38C66" class="" data-old_color="#BFBCBC"/>
	</g>
	<path style="fill:#FFCA28" d="M409.335,272.562c-1.169,1.167-3.081,1.165-4.25-0.003l-99.983-100.115   c-1.159-1.168-1.158-3.077,0.002-4.244l38.293-38.242c1.169-1.167,3.081-1.166,4.248,0.002l99.983,100.126   c1.159,1.168,1.157,3.077-0.003,4.244L409.335,272.562z" data-original="#FFE07D" class="" data-old_color="#FFca28"/>
	<path style="fill:#F0BC15" d="M447.628,230.086L347.645,129.96c-1.168-1.168-3.08-1.17-4.249-0.002l-12.895,12.878l87.126,87.25   c1.159,1.168,1.157,3.077-0.003,4.244l-25.396,25.357l12.855,12.872c1.169,1.168,3.08,1.169,4.25,0.003l38.291-38.232   C448.786,233.163,448.787,231.254,447.628,230.086z" data-original="#FFD064" class="" data-old_color="#EFBB15"/>
	<g>
		<path style="fill:#FFFFFF;" d="M349,181.5c-1.919,0-3.839-0.732-5.303-2.197l-3-3c-2.929-2.929-2.929-7.678,0-10.606    c2.929-2.929,7.678-2.929,10.606,0l3,3c2.929,2.929,2.929,7.678,0,10.606C352.839,180.768,350.919,181.5,349,181.5z" data-original="#FFFFFF" class=""/>
	</g>
	<g>
		<path style="fill:#EEEEEE" d="M235.118,193.969c-22.914,10.642-38.543,24.582-46.085,40.846    c-7.665,16.527-0.027,35.976,19.497,39.786c-7.948-4.667-11.424-18.75-6.336-29.767c11.14-24.119,32.308-42.521,55.222-53.163    c-23.48-13.588-60.221-10.881-60.221-10.881l-2.612,2.612C206.926,184.258,222.813,186.848,235.118,193.969z" data-original="#F2D0A5" class="active-path" data-old_color="#eeeeee"/>
		<path style="fill:#EEEEEE" d="M356.536,331.96l-50.75-50.746l-47.728-47.724l-0.047,0.049    c-4.056,2.792-9.536,7.771-12.722,11.427l89.126,89.116c6.719,6.706,7.688,20.196-0.713,25.931    c7.067,4.655,16.651,3.878,22.855-2.333C363.662,350.579,363.652,339.063,356.536,331.96z" data-original="#F2D0A5" class="active-path" data-old_color="#eeeeee"/>
	</g>
	<path style="fill:#EEEEEE" d="M261.384,390.975l-44.018-44.015l-12.121,12.121l2.67,2.67l31.347,31.345   c6.619,6.613,7.646,20.402-0.722,25.925c7.067,4.659,16.651,3.878,22.859-2.335C268.503,409.587,268.491,398.077,261.384,390.975z" data-original="#F2D0A5" class="active-path" data-old_color="#eeeeee"/>
	<path style="fill:#EEEEEE" d="M294.397,372.564l-47.989-47.971l-12.12,12.12l37.988,37.973c6.724,6.714,7.572,20.119-0.801,25.838   c7.059,4.657,16.65,3.882,22.854-2.334C301.423,391.088,301.512,379.669,294.397,372.564z" data-original="#F2D0A5" class="active-path" data-old_color="#eeeeee"/>
	<path style="fill:#EEEEEE" d="M325.541,352.283l-54.568-54.539l-12.119,12.119l44.565,44.541   c6.706,6.705,7.685,20.211-0.72,25.933c7.056,4.655,16.645,3.879,22.859-2.334C332.652,370.895,332.641,359.381,325.541,352.283z" data-original="#F2D0A5" class="active-path" data-old_color="#eeeeee"/>
	<g>
		<path style="fill:#212533" d="M101.287,272.562c1.169,1.167,3.081,1.165,4.249-0.003l99.983-100.115    c1.169-1.168,1.167-3.077-0.002-4.244l-38.292-38.242c-1.169-1.167-3.071-1.166-4.238,0.002L63.003,230.086    c-1.168,1.168-1.167,3.077,0.003,4.244L101.287,272.562z" data-original="#C3DDFF" class="" data-old_color="#C3DDFF"/>
	</g>
	<path style="fill:#2F364B" d="M205.517,168.2l-38.292-38.242c-1.169-1.167-3.071-1.166-4.238,0.002l-12.862,12.88l25.392,25.359   c1.17,1.167,1.171,3.076,0.002,4.244l-87.126,87.241l12.893,12.877c1.169,1.167,3.081,1.165,4.249-0.003l99.983-100.115   C206.688,171.276,206.687,169.367,205.517,168.2z" data-original="#A4CCFF" class="" data-old_color="#2F3549"/>
</g><g>
	<path d="M128.303,164.693c-2.93-2.926-7.679-2.923-10.606,0.008l-59.996,60.081c-4.043,4.041-4.044,10.817,0.005,14.854   l38.285,38.236c4.043,4.033,10.815,4.022,14.853-0.013l1.974-1.977c2.548,15.311,9.944,38.341,30.94,59.315   c8.405,8.392,86.627,86.803,86.627,86.803c13.93,13.902,38.628,6.988,43.148-12.236c14.491,4.695,30.355-4.651,33.202-19.647   c14.096,3.341,28.571-6.003,31.195-20.285c20.206,4.629,37.684-16.344,29.264-35.38c20.834-20.828,28.182-43.385,30.691-58.489   l1.9,1.902c4.035,4.03,10.814,4.041,14.85,0.004l38.31-38.25c4.06-4.082,4.064-10.728-0.008-14.832l-99.986-100.128   c-4.093-4.095-10.756-4.099-14.853-0.007l-38.313,38.262c-3.185,3.204-3.859,7.984-2.038,11.878   c-13.758,0.494-27.279,3.476-39.926,8.598c-14.364-7.195-31.808-9.436-44.375-10.006c1.114-3.681,0.092-7.776-2.628-10.489   l-38.292-38.242c-4.094-4.09-10.753-4.086-14.847,0.011l-13.5,13.527c-6.83,6.842,3.773,17.452,10.617,10.596l10.316-10.337   l31.921,31.88l-93.627,93.751l-31.917-31.876l56.822-56.903C131.238,172.369,131.234,167.62,128.303,164.693z M357.801,322.618   l-94.44-94.432c-1.421-1.42-3.414-2.207-5.384-2.172c-1.615,0.013-3.187,0.561-4.468,1.525   c-11.027,8.07-19.057,17.293-24.547,28.192c-6.574,12.51-11.566,13.492-14.836,13.127c-1.222-0.122-3.226-1.317-4.853-4.283   c-2.849-5.193-2.629-12.102,0.595-18.49c10.748-21.372,28.893-37.917,50.191-47.407c0.273-0.103,0.539-0.224,0.799-0.359   c16.005-6.972,33.748-9.952,51.454-8.029l71.828,71.927C384.099,270.65,381.934,297.688,357.801,322.618z M345.515,138.442   l93.627,93.76l-31.926,31.877l-93.628-93.752L345.515,138.442z M196.471,239.338c-5.446,10.794-5.577,22.926-0.349,32.454   c3.759,6.851,9.93,11.333,16.429,11.984c17.625,1.965,26.729-15.422,29.723-21.132c0.02-0.039,0.04-0.077,0.059-0.115   c3.565-7.093,8.546-13.355,15.143-19.014l93.762,93.754c9.658,9.64-5.416,24.77-15.1,15.104l-59.864-59.934   c-6.837-6.835-17.455,3.761-10.604,10.609l55.359,55.43c8.07,10.089-6.705,23.402-15.885,14.222l-53.238-53.213   c-6.839-6.833-17.457,3.761-10.604,10.609l47.795,47.774c9.579,9.565-5.593,24.605-15.182,15.012l-51.123-51.099   c-6.84-6.832-17.456,3.76-10.604,10.609l43.894,43.887c9.648,9.638-5.418,24.765-15.097,15.107c0,0-51.776-52.003-86.628-86.805   c-24.984-24.958-27.616-53.737-27.811-62.42l73.719-73.83c6.138-0.255,23.629-0.468,39.591,4.14   C221.626,203.684,206.329,219.736,196.471,239.338z" data-original="#000000" class="" style="fill:#212533" data-old_color="#FFCA28"/>
	<path d="M351.303,165.697c-4.249-4.249-11.797-1.799-12.715,4.155c-0.624,4.046,2.329,6.945,5.079,9.422   c4.395,3.956,11.784,2.099,12.745-4.126C357.067,170.905,353.976,168.37,351.303,165.697z" data-original="#000000" class="" style="fill:#212533" data-old_color="#FFCA28"/>
	<path d="M437.021,74.981C388.669,26.629,324.382,0,256,0S123.331,26.629,74.979,74.981C26.628,123.333,0,187.62,0,256   s26.628,132.667,74.979,181.019C123.331,485.371,187.618,512,256,512c18.121,0,36.212-1.902,53.771-5.655   c9.459-2.022,6.324-16.693-3.135-14.669C290.105,495.209,273.069,497,256,497c-64.375,0-124.896-25.069-170.415-70.588   C40.068,380.894,15,320.373,15,256S40.068,131.106,85.585,85.588C131.104,40.069,191.625,15,256,15s124.896,25.069,170.415,70.588   C471.932,131.106,497,191.627,497,256c0,36.924-8.13,72.356-24.166,105.313c-4.231,8.698,9.257,15.261,13.488,6.562   C503.361,332.857,512,295.217,512,256C512,187.62,485.372,123.333,437.021,74.981z" data-original="#000000" class="" style="fill:#212533" data-old_color="#FFCA28"/>
	<path d="M449.16,389.483l-93.37,93.373l-35.419-35.418c-6.836-6.836-17.457,3.757-10.606,10.606l40.723,40.722   c1.407,1.407,3.314,2.197,5.303,2.197s3.897-0.79,5.303-2.197l98.673-98.676C466.603,393.254,456.01,382.633,449.16,389.483z" data-original="#000000" class="" style="fill:#212533" data-old_color="#FFCA28"/>
</g></g> </svg>
