<?xml version="1.0"?>
<svg xmlns="http://www.w3.org/2000/svg" xmlns:xlink="http://www.w3.org/1999/xlink" version="1.1" id="Capa_1" x="0px" y="0px" width="512px" height="512px" viewBox="0 0 50.077 50.078" style="enable-background:new 0 0 50.077 50.078;" xml:space="preserve" class=""><g><g>
	<path d="M49.308,39.175c-0.207-0.344-0.39-0.645-0.509-1.037c0.021-0.034,0.043-0.069,0.064-0.104   c0.319-0.537,0.855-1.436,0.855-2.857c0-1.416-0.424-2.229-0.702-2.77c-0.166-0.318-0.177-0.34-0.177-0.613   c0-0.272,0.011-0.293,0.177-0.611c0.278-0.538,0.702-1.354,0.702-2.77c0-1.418-0.424-2.23-0.702-2.77   c-0.166-0.319-0.177-0.34-0.177-0.612c0-0.274,0.011-0.293,0.177-0.613c0.278-0.539,0.702-1.354,0.702-2.771   s-0.424-2.229-0.702-2.77c-0.166-0.318-0.177-0.338-0.177-0.612c0-0.274,0.011-0.295,0.177-0.612   c0.278-0.539,0.702-1.354,0.702-2.771s-0.424-2.229-0.702-2.769c-0.166-0.319-0.177-0.339-0.18-0.579   c0.024-0.118,0.214-0.428,0.339-0.632c1.572-2.564,0.572-4.125-0.543-4.982c-0.801-0.615-1.653-0.927-2.534-0.927   c-1.095,0-1.923,0.474-2.525,0.819c-0.521,0.299-0.744,0.41-1.026,0.41c-0.647,0-0.877-0.091-1.33-0.271   c-0.642-0.256-1.518-0.606-3.065-0.606c-1.547,0-2.426,0.352-3.064,0.606c-0.452,0.181-0.68,0.271-1.327,0.271   c-0.646,0-0.875-0.091-1.325-0.271c-0.641-0.256-1.518-0.607-3.062-0.607s-2.424,0.352-3.062,0.607   c-0.451,0.181-0.679,0.271-1.324,0.271c-0.646,0-0.875-0.091-1.325-0.271c-0.642-0.256-1.519-0.607-3.064-0.607   c-1.545,0-2.425,0.352-3.063,0.607c-0.451,0.181-0.681,0.271-1.325,0.271c-0.646,0-0.874-0.091-1.326-0.271   c-0.64-0.256-1.517-0.607-3.063-0.607S9.396,5.697,8.757,5.952C8.307,6.133,8.079,6.223,7.433,6.223   c-0.278,0-0.502-0.111-1.021-0.41C5.808,5.467,4.977,4.994,3.888,4.994c-0.884,0-1.735,0.312-2.537,0.93   c-1.112,0.859-2.107,2.421-0.538,4.983c0.125,0.205,0.315,0.515,0.338,0.603c0,0.277-0.015,0.304-0.178,0.618   c-0.279,0.539-0.701,1.354-0.701,2.771s0.424,2.229,0.702,2.77c0.166,0.32,0.177,0.339,0.177,0.614   c0,0.272-0.011,0.293-0.177,0.612c-0.277,0.538-0.702,1.353-0.702,2.77s0.424,2.229,0.702,2.77   c0.166,0.318,0.177,0.338,0.177,0.612s-0.011,0.293-0.177,0.612c-0.277,0.539-0.702,1.354-0.702,2.771s0.424,2.229,0.702,2.771   c0.166,0.317,0.177,0.339,0.177,0.611c0,0.274-0.011,0.293-0.177,0.612c-0.277,0.539-0.702,1.353-0.702,2.769   c0,1.42,0.424,2.229,0.702,2.771c0.166,0.32,0.177,0.338,0.179,0.58c-0.022,0.119-0.213,0.428-0.338,0.631   c-1.571,2.564-0.571,4.125,0.543,4.982c0.802,0.613,1.653,0.928,2.535,0.928c1.094,0,1.922-0.477,2.526-0.82   c0.521-0.299,0.743-0.409,1.026-0.409c0.647,0,0.877,0.092,1.329,0.271c0.643,0.256,1.519,0.607,3.065,0.607   s2.426-0.354,3.064-0.607c0.453-0.182,0.682-0.271,1.328-0.271s0.873,0.092,1.325,0.271c0.64,0.256,1.517,0.607,3.063,0.607   c1.549,0,2.425-0.354,3.062-0.607c0.452-0.182,0.68-0.271,1.326-0.271s0.874,0.092,1.326,0.271   c0.642,0.256,1.519,0.607,3.063,0.607s2.424-0.354,3.062-0.607c0.452-0.182,0.682-0.271,1.326-0.271   c0.646,0,0.874,0.092,1.324,0.271c0.641,0.256,1.518,0.607,3.063,0.607s2.425-0.354,3.062-0.607   c0.451-0.182,0.681-0.271,1.326-0.271c0.277,0,0.502,0.11,1.021,0.409c0.604,0.349,1.436,0.82,2.523,0.82   c0.886,0,1.735-0.313,2.537-0.934C50.297,42.871,50.522,41.197,49.308,39.175z M43.401,38.31H6.577V11.763H43.4L43.401,38.31   L43.401,38.31z" data-original="#000000" class="active-path" data-old_color="#efebeb" fill="#efebeb"/>
</g></g> </svg>
