<?xml version="1.0"?>
<svg xmlns="http://www.w3.org/2000/svg" height="512px" viewBox="0 -15 366 366" width="512px" class=""><g><path d="m40 276.523438h46v20h-46zm0 0" data-original="#000000" class="active-path" data-old_color="#efebeb" fill="#efebeb"/><path d="m176 0h-100.605469c-3.019531-.0078125-5.832031 1.535156-7.449219 4.085938l-62.179687 97.542968h170.234375zm0 0" data-original="#000000" class="active-path" data-old_color="#efebeb" fill="#efebeb"/><path d="m298.054688 4.085938c-1.617188-2.550782-4.429688-4.0937505-7.449219-4.085938h-100.605469v101.628906h170.234375zm0 0" data-original="#000000" class="active-path" data-old_color="#efebeb" fill="#efebeb"/><path d="m246.253906 115.628906v103.632813c0 2.871093-1.753906 5.453125-4.425781 6.507812-2.671875 1.058594-5.71875.375-7.683594-1.71875l-13.644531-14.554687-13.636719 14.550781c-1.324219 1.414063-3.171875 2.214844-5.109375 2.214844-1.933594 0-3.78125-.800781-5.105468-2.214844l-13.644532-14.554687-13.644531 14.554687c-1.324219 1.414063-3.171875 2.214844-5.109375 2.214844-1.933594 0-3.78125-.800781-5.105469-2.214844l-13.644531-14.554687-13.648438 14.558593c-1.964843 2.09375-5.007812 2.777344-7.679687 1.71875-2.671875-1.054687-4.425781-3.636719-4.425781-6.507812v-103.632813h-119.746094v212.058594c.00390625 4.875 3.957031 8.828125 8.832031 8.835938h348.335938c4.875-.007813 8.828125-3.960938 8.832031-8.835938v-212.058594zm-146.253906 187.894532c0 3.863281-3.132812 7-7 7h-60c-3.867188 0-7-3.136719-7-7v-34c0-3.867188 3.132812-7 7-7h60c3.867188 0 7 3.132812 7 7zm73-1h-46c-3.867188 0-7-3.136719-7-7 0-3.867188 3.132812-7 7-7h46c3.867188 0 7 3.132812 7 7 0 3.863281-3.132812 7-7 7zm45-26h-91c-3.867188 0-7-3.136719-7-7 0-3.867188 3.132812-7 7-7h91c3.867188 0 7 3.132812 7 7 0 3.863281-3.132812 7-7 7zm0 0" data-original="#000000" class="active-path" data-old_color="#efebeb" fill="#efebeb"/><path d="m133.746094 201.5625 6.648437-7.089844c1.324219-1.414062 3.171875-2.214844 5.105469-2.214844s3.785156.800782 5.105469 2.214844l13.648437 14.550782 13.644532-14.550782c1.324218-1.410156 3.171874-2.210937 5.109374-2.210937 1.933594 0 3.78125.800781 5.105469 2.210937l13.644531 14.554688 13.640626-14.554688c1.324218-1.410156 3.171874-2.210937 5.109374-2.210937 1.933594 0 3.78125.800781 5.105469 2.210937l6.644531 7.085938v-85.929688h-98.511718zm0 0" data-original="#000000" class="active-path" data-old_color="#efebeb" fill="#efebeb"/></g> </svg>
