<?xml version="1.0" encoding="utf-8"?>
<!-- Generator: Adobe Illustrator 22.1.0, SVG Export Plug-In . SVG Version: 6.00 Build 0)  -->
<svg xmlns="http://www.w3.org/2000/svg" xmlns:xlink="http://www.w3.org/1999/xlink" version="1.1" id="Layer_1" x="0px" y="0px" viewBox="0 0 256 256" style="enable-background:new 0 0 256 256;" xml:space="preserve" width="512" height="512">
<style type="text/css">
	.st0{fill:#FFA730;}
	.st1{fill:#E58D23;}
	.st2{fill:#FFB74B;}
	.st3{fill:#BF6C0D;}
	.st4{fill:#A56021;}
	.st5{fill:#CCC033;}
	.st6{fill:#99AF17;}
	.st7{fill:#EACF32;}
	.st8{fill:#FCDA4F;}
	.st9{fill:#FFDF74;}
	.st10{fill:#FCE575;}
	.st11{fill:#FFD551;}
	.st12{fill:#FFC34C;}
	.st13{fill:#F9BB32;}
	.st14{fill:#FFF4C1;}
	.st15{fill:#DB9C2E;}
	.st16{fill:#8C4C17;}
	.st17{fill:#FF624B;}
	.st18{fill:#FF4B34;}
	.st19{fill:#FF9079;}
	.st20{fill:#FFD59A;}
	.st21{fill:#FFEACF;}
	.st22{fill:#FCF9DE;}
</style>
<g>
	<g>
		<g>
			<g>
				<path class="st17" d="M114.105,96.515c-4.918,0-8.361-5.249-5.169-10.589c0.137-0.229,0.326-0.436,0.542-0.593      c5.29-3.843,10.944-0.328,10.944,4.776C120.422,93.708,117.614,96.515,114.105,96.515z M110.544,34.924h6.508      c1.126,0,2.029,0.928,1.999,2.054l-1.033,38.553c-0.029,1.083-0.916,1.946-1.999,1.946h-4.441c-1.084,0-1.97-0.863-1.999-1.946      l-1.033-38.553C108.515,35.852,109.419,34.924,110.544,34.924z"/>
			</g>
		</g>
	</g>
	<g>
		<g>
			<path class="st11" d="M179.651,242.866H22.058c-1.135,0-2.055-0.92-2.055-2.055V124.866h159.647V242.866z"/>
		</g>
	</g>
	<g>
		<g>
			<path class="st9" d="M171.65,237.154c-1.657,0-3-1.343-3-3v-30c0-1.657,1.343-3,3-3s3,1.343,3,3v30     C174.65,235.811,173.307,237.154,171.65,237.154z"/>
		</g>
	</g>
	<g>
		<g>
			<path class="st13" d="M20.003,124.866v115.893c0,1.164,0.897,2.107,2.003,2.107h26.044v-118H20.003z"/>
		</g>
	</g>
	<g>
		<g>
			<path class="st15" d="M233.942,242.866h-54.291v-118h56.346v115.945C235.997,241.946,235.077,242.866,233.942,242.866z"/>
		</g>
	</g>
	<g>
		<g>
			<path class="st9" d="M157.266,167.639h-13.847c-1.657,0-3-1.343-3-3s1.343-3,3-3h13.847c0.438,0,0.834-0.356,0.963-0.866     l7.146-28.215c0.407-1.607,2.037-2.578,3.645-2.171c1.606,0.407,2.578,2.039,2.171,3.645l-7.146,28.214     C163.241,165.421,160.453,167.639,157.266,167.639z"/>
		</g>
	</g>
	<g>
		<g>
			<circle class="st13" cx="62.094" cy="229.3" r="9"/>
		</g>
	</g>
	<g>
		<g>
			<path class="st3" d="M235.803,222.866h-28c-1.105,0-2-0.895-2-2v-12c0-1.105,0.895-2,2-2h28V222.866z"/>
		</g>
	</g>
	<g>
		<g>
			<path class="st13" d="M31,124.866v8h1.003l-10.866,42.902c-0.677,2.675,1.24,5.299,3.872,5.299h77.427h72.988     c1.816,0,3.404-1.284,3.872-3.13l0.355-1.401v-43.671v-8H31z"/>
		</g>
	</g>
	<g>
		<g>
			<path class="st1" d="M230.105,124.866h-50.454v8v0.428v23.261l5.416,21.382c0.468,1.845,2.056,3.13,3.872,3.13h47.059v-24.512     l-5.891-23.261V124.866z"/>
		</g>
	</g>
	<g>
		<g>
			<path class="st11" d="M179.651,124.866l11.416,45.071c0.467,1.845,2.056,3.129,3.872,3.129h48.053     c2.632,0,4.549-2.624,3.872-5.299l-10.866-42.902H179.651z"/>
		</g>
	</g>
	<g>
		<g>
			<path class="st9" d="M178.711,124.866l-11.416,45.071c-0.467,1.845-2.056,3.129-3.872,3.129H90.436H13.009     c-2.632,0-4.549-2.624-3.872-5.299l10.866-42.902H178.711z"/>
		</g>
	</g>
	<g>
		<g>
			<path class="st11" d="M37.185,167.768l10.866-42.902H20.003L9.137,167.768c-0.678,2.675,1.24,5.299,3.872,5.299h28.048     C38.425,173.067,36.507,170.443,37.185,167.768z"/>
		</g>
	</g>
	<g>
		<g>
			<circle class="st11" cx="53.094" cy="161.967" r="9"/>
		</g>
	</g>
	<g>
		<g>
			<path class="st14" d="M157.266,167.639h-13.847c-1.657,0-3-1.343-3-3s1.343-3,3-3h13.847c0.438,0,0.834-0.356,0.963-0.866     l7.146-28.215c0.407-1.607,2.037-2.578,3.645-2.171c1.606,0.407,2.578,2.039,2.171,3.645l-7.146,28.214     C163.241,165.421,160.453,167.639,157.266,167.639z"/>
		</g>
	</g>
	<g>
		<g>
			<path class="st2" d="M218.693,170.038l-0.349,0.35c-3.742,3.743-9.792,3.759-13.513,0.037l-68.666-68.682l13.9-13.903     l68.666,68.682C222.451,160.244,222.434,166.296,218.693,170.038z"/>
		</g>
	</g>
	<g>
		<g>
			<path class="st0" d="M216.127,170.425l-68.666-68.682l8.251-8.253l-5.649-5.65l-13.899,13.902l68.666,68.682     c3.368,3.369,8.637,3.664,12.382,0.918C216.835,171.065,216.469,170.766,216.127,170.425z"/>
		</g>
	</g>
	<g>
		<g>
			<path class="st3" d="M172.508,145.679l27.801,27.808c5.915,5.916,15.51,6.275,21.513,0.55c6.184-5.898,6.23-15.772,0.171-21.832     l-28.005-28.011c-1.456-1.457-3.807-1.466-5.251-0.022l-16.252,16.256C171.042,141.871,171.052,144.223,172.508,145.679z"/>
		</g>
	</g>
	<g>
		<g>
			<path class="st19" d="M151.324,28.435c-9.903-9.905-23.09-15.339-37.133-15.301c-14.043,0.038-27.26,5.544-37.217,15.503     c-20.554,20.559-20.645,53.92-0.202,74.367c9.903,9.905,23.09,15.339,37.133,15.301c14.043-0.038,27.26-5.544,37.216-15.503     c9.957-9.959,15.461-23.18,15.5-37.225C166.66,51.531,161.227,38.34,151.324,28.435z M141.699,93.376     c-15.329,15.333-40.204,15.4-55.45,0.151c-15.246-15.25-15.179-40.131,0.151-55.463s40.204-15.4,55.45-0.151     C157.096,53.162,157.028,78.043,141.699,93.376z"/>
		</g>
	</g>
	<g>
		<g>
			<g>
				<path class="st17" d="M89.953,103.004c-20.442-20.448-20.352-53.809,0.202-74.367c8.416-8.418,19.166-13.639,30.771-15.081      c-2.217-0.276-4.463-0.428-6.735-0.422c-14.043,0.038-27.26,5.544-37.217,15.503c-20.554,20.559-20.645,53.92-0.202,74.367      c9.903,9.905,23.09,15.339,37.133,15.301c2.172-0.006,4.322-0.158,6.445-0.422C108.866,116.453,98.254,111.307,89.953,103.004z"/>
			</g>
		</g>
	</g>
	<g>
		<g>
			<path class="st4" d="M219.139,173.487l-27.801-27.808c-1.456-1.456-1.466-3.808-0.022-5.252l9.452-9.454l-6.778-6.78     c-1.456-1.456-3.807-1.466-5.251-0.022l-16.252,16.256c-1.444,1.444-1.434,3.796,0.022,5.252l27.801,27.808     c5.591,5.592,14.467,6.211,20.493,1.426C220.226,174.476,219.664,174.012,219.139,173.487z"/>
		</g>
	</g>
</g>
</svg>
