<?xml version="1.0"?>
<svg xmlns="http://www.w3.org/2000/svg" xmlns:xlink="http://www.w3.org/1999/xlink" version="1.1" id="Capa_1" x="0px" y="0px" viewBox="0 0 511.808 511.808" style="enable-background:new 0 0 511.808 511.808;" xml:space="preserve" width="512px" height="512px" class=""><g><g>
	<path style="fill:#FFCA28" d="M105.689,9.137c1.218-2.465,3.21-2.465,4.428,0l27.401,55.491c1.218,2.466,4.44,4.806,7.162,5.201   l61.287,8.897c2.722,0.395,3.337,2.288,1.366,4.207l-44.343,43.195c-1.97,1.919-3.201,5.706-2.736,8.417l10.471,60.988   c0.465,2.71-1.146,3.881-3.581,2.602l-54.814-28.798c-2.435-1.279-6.419-1.279-8.854,0l-54.824,28.798   c-2.435,1.279-4.046,0.107-3.581-2.603l10.47-60.987c0.465-2.71-0.766-6.498-2.736-8.417L8.463,82.934   c-1.971-1.919-1.355-3.812,1.366-4.207l61.286-8.897c2.722-0.395,5.944-2.735,7.162-5.201L105.689,9.137z" data-original="#FFE07D" class="" data-old_color="#FFca28"/>
	<g>
		<path style="fill:#E6B620" d="M110.117,9.137c-1.218-2.466-3.21-2.466-4.428,0" data-original="#FFD064" class="" data-old_color="#E5B51F"/>
		<path style="fill:#E6B620" d="M207.334,82.934c1.971-1.919,1.355-3.812-1.366-4.207l-38.664-5.613    c1.525,0.741,1.62,2.272,0.03,3.82l-44.343,43.195c-1.97,1.919-3.201,5.706-2.736,8.416l8.483,49.413l38.406,20.177    c2.435,1.279,4.046,0.108,3.581-2.602l-10.471-60.988c-0.465-2.71,0.767-6.498,2.736-8.416L207.334,82.934z" data-original="#FFD064" class="" data-old_color="#E5B51F"/>
	</g>
	<path style="fill:#EFEBEB" d="M79.808,262.04h154.025v-45.272v-34.081c0-29.893,3.461-98.479,48.062-98.479   c24.564,0,24.103,26.507,24.103,44.291c0,23.874-2.977,49.722,4.211,72.857c12.763,41.087,52.389,63.956,93.922,64.39   l6.678,103.042l-6.678,87.254c0,0-41.8,48.246-118.771,48.246c-61.53,0-68.547,0-205.551,0V262.04z" data-original="#FFE4C2" class="" data-old_color="#efebeb"/>
	<path style="fill:#CFC9C9" d="M310.209,201.356c-7.188-23.136-4.211-48.984-4.211-72.857c0-17.784,0.461-44.291-24.103-44.291   c-4.173,0-7.986,0.601-11.47,1.714c14.896,6.134,14.572,27.49,14.572,42.577c0,23.874-2.977,49.722,4.211,72.857   c12.763,41.087,32.068,60.332,59.6,91.432c54,61,47,211.5-84.449,211.5c6.383,0,13.26,0,21,0   c76.972,0,118.771-48.246,118.771-48.246l6.678-87.254l-6.678-103.042C362.597,265.312,322.971,242.444,310.209,201.356z" data-original="#F2D0A5" class="active-path" data-old_color="#CFCACA"/>
	<path style="fill:#141C28" d="M409.156,492.947c-2.75,0-5-2.25-5-5V252.214c0-2.75,2.25-5,5-5h90.152c2.75,0,5,2.25,5,5v235.733   c0,2.75-2.25,5-5,5H409.156z" data-original="#C3DDFF" class="" data-old_color="#141c28"/>
	<path style="fill:#212533" d="M499.308,247.214h-40c2.75,0,5,2.25,5,5v235.733c0,2.75-2.25,5-5,5h40c2.75,0,5-2.25,5-5V252.214   C504.308,249.464,502.058,247.214,499.308,247.214z" data-original="#A4CCFF" class="" data-old_color="#EFEBEB"/>
	<path style="fill:#EFEBEB" d="M180.777,473.944c0,16.728-13.566,30.289-30.303,30.289H67.656   c-16.744,0-30.301-13.561-30.301-30.289l0,0c0-16.727,13.557-30.286,30.301-30.286h82.818   C167.211,443.658,180.777,457.217,180.777,473.944L180.777,473.944z" data-original="#FFE4C2" class="" data-old_color="#efebeb"/>
	<path style="fill:#CFC9C9" d="M159.434,445.005c0.872,2.826,1.343,5.827,1.343,8.939c0,16.728-13.566,30.289-30.303,30.289H47.656   c-3.119,0-6.127-0.472-8.957-1.346c3.815,12.362,15.33,21.346,28.957,21.346h82.818c16.736,0,30.303-13.562,30.303-30.289   C180.777,460.335,171.796,448.823,159.434,445.005z" data-original="#F2D0A5" class="active-path" data-old_color="#CFCACA"/>
	<path style="fill:#EFEBEB" d="M193.346,413.378c0,16.723-13.572,30.28-30.314,30.28H42.922c-16.731,0-30.305-13.558-30.305-30.28   l0,0c0-16.728,13.357-30.289,30.098-30.289h120.317C179.774,383.089,193.346,396.649,193.346,413.378L193.346,413.378z" data-original="#FFE4C2" class="" data-old_color="#efebeb"/>
	<path style="fill:#CFC9C9" d="M172.003,384.438c0.873,2.826,1.344,5.828,1.344,8.94c0,16.723-13.572,30.28-30.314,30.28H22.922   c-3.12,0-6.129-0.473-8.962-1.348c3.816,12.363,15.343,21.348,28.962,21.348h120.11c16.742,0,30.314-13.558,30.314-30.28   C193.346,399.77,184.365,388.259,172.003,384.438z" data-original="#F2D0A5" class="active-path" data-old_color="#CFCACA"/>
	<path style="fill:#EFEBEB" d="M210.018,352.805c0,16.727-13.572,30.286-30.305,30.286H37.613   c-16.729,0-30.305-13.56-30.305-30.286l0,0c0-16.727,13.576-30.282,30.305-30.282h142.101   C196.446,322.523,210.018,336.079,210.018,352.805L210.018,352.805z" data-original="#FFE4C2" class="" data-old_color="#efebeb"/>
	<path style="fill:#CFC9C9" d="M188.676,323.871c0.872,2.824,1.343,5.824,1.343,8.934c0,16.727-13.572,30.286-30.305,30.286H17.613   c-3.119,0-6.128-0.473-8.961-1.348c3.818,12.363,15.344,21.348,28.961,21.348h142.101c16.732,0,30.305-13.56,30.305-30.286   C210.018,339.198,201.035,327.69,188.676,323.871z" data-original="#F2D0A5" class="active-path" data-old_color="#CFCACA"/>
	<path style="fill:#EFEBEB" d="M189.173,292.333c0,16.726-13.568,30.286-30.309,30.286H60.423   c-16.744,0-30.316-13.561-30.316-30.286l0,0c0-16.728,13.572-30.288,30.316-30.288h98.441   C175.605,262.045,189.173,275.605,189.173,292.333L189.173,292.333z" data-original="#FFE4C2" class="" data-old_color="#efebeb"/>
	<path style="fill:#CFC9C9" d="M167.83,263.392c0.872,2.826,1.344,5.828,1.344,8.94c0,16.726-13.568,30.286-30.309,30.286H40.424   c-3.124,0-6.137-0.473-8.973-1.35c3.817,12.364,15.343,21.35,28.973,21.35h98.441c16.74,0,30.309-13.561,30.309-30.286   C189.174,278.724,180.193,267.212,167.83,263.392z" data-original="#F2D0A5" class="active-path" data-old_color="#CFCACA"/>
	<circle style="fill:#F0EEF0" cx="454.235" cy="299.47" r="18.5" data-original="#F0EEF0" class=""/>
</g><g>
	<path d="M47.518,131.445c0.302,0.365,0.649,1.436,0.631,1.831l-10.47,60.989c-1.492,8.695,6.878,14.494,14.46,10.51l54.755-28.765   c0.443-0.175,1.574-0.174,1.947-0.034l54.814,28.797c7.572,3.979,15.929-1.949,14.461-10.51l-10.46-60.91   c-0.029-0.474,0.319-1.544,0.567-1.854l44.342-43.194c6.129-5.968,3.079-15.755-5.521-17.003l-61.211-8.883   c-0.46-0.119-1.372-0.781-1.591-1.114L116.841,5.816c-3.786-7.666-14.03-7.788-17.877-0.001L71.59,61.239   c-0.255,0.401-1.168,1.063-1.552,1.168L8.752,71.304c-8.464,1.228-11.749,10.94-5.522,17.002L47.518,131.445z M72.192,77.252   c5.128-0.745,10.516-4.657,12.81-9.302l22.9-46.359l22.892,46.358c2.294,4.646,7.682,8.558,12.81,9.302l51.187,7.431   l-37.032,36.074c-3.713,3.617-5.771,9.949-4.895,15.058l8.745,50.941l-45.791-24.057c-4.586-2.409-11.242-2.409-15.828,0   l-45.802,24.059l8.745-50.943c0.877-5.109-1.183-11.442-4.895-15.057L21.007,84.683L72.192,77.252z" data-original="#000000" class="" style="fill:#212533" data-old_color="#000000"/>
	<path d="M499.308,239.714h-90.152c-6.893,0-12.5,5.607-12.5,12.5c0.444,1.652,0,3.957,0,5.678   c-47.381-3.895-81.027-37.9-83.497-85.211c-1.432-27.43,13.258-95.973-31.264-95.973c-28.566,0-41.828,23.557-47.923,43.319   c-5.068,16.435-7.639,37.517-7.639,62.659c0,9.673,15,9.673,15,0c0-23.643,2.346-43.237,6.973-58.239   c6.794-22.03,17.781-32.74,33.589-32.74c18.281,0,16.626,24.137,16.603,36.791c-0.046,24.22-2.827,49.019,3.872,72.68   c11.942,42.182,51.568,68.777,94.261,71.769v180.1c-8.661,8.693-47.55,43.74-111.271,43.74H180.562   c11.054-14.514,9.923-35.446-2.575-48.717c23.057-9.96,30.13-40.363,13.617-59.405c35.334-11.735,32.972-64.197-3.309-72.649   c10.771-13.341,11.071-32.818,0.702-46.477h37.266c0.19,11.903,1.749,35.645,10.098,60.433   c15.77,46.819,48.135,74.399,93.596,79.761c9.604,1.13,11.366-13.764,1.758-14.896c-54.777-6.461-82.329-53.106-88.859-104.128   c-3.109-24.29-1.521-49.522-1.521-73.943c0-9.673-15-9.673-15,0v37.772l-165.91,0.005c-30.849,0-48.938,36.73-29.712,61.121   c-33.314,6.17-41.727,51.625-12.818,69.364c-23.768,21.048-11.474,61.509,19.912,65.773c-18.984,24.414-0.892,60.931,29.851,60.931   l217.703,0.055c55.151,0,92.806-23.472,111.297-38.538v14.698c0,6.893,5.607,12.5,12.5,12.5h31.461c9.673,0,9.673-15,0-15h-28.961   V254.714h85.152v230.733h-23.092c-9.673,0-9.673,15,0,15h25.592c6.893,0,12.5-5.607,12.5-12.5V252.214   C511.808,245.321,506.201,239.714,499.308,239.714z M60.424,269.545h98.441c12.577,0,22.809,10.223,22.809,22.788   c0,11.878-9.145,21.657-20.771,22.69H58.385c-11.629-1.034-20.778-10.813-20.778-22.69   C37.607,279.767,47.842,269.545,60.424,269.545z M37.613,375.591c-12.574,0-22.805-10.222-22.805-22.786   c0-12.562,10.23-22.782,22.805-22.782h142.101c12.574,0,22.805,10.22,22.805,22.782c0,12.564-10.23,22.786-22.805,22.786H37.613z    M20.117,413.378c0-12.527,10.076-22.723,22.483-22.786h120.547c12.527,0.063,22.699,10.259,22.699,22.786   c0,12.561-10.234,22.78-22.814,22.78H42.922C30.347,436.158,20.117,425.939,20.117,413.378z M44.855,473.944   c0-12.564,10.229-22.786,22.801-22.786h82.818c12.573,0,22.803,10.222,22.803,22.786c0,12.566-10.229,22.789-22.803,22.789H67.656   C55.084,496.733,44.855,486.51,44.855,473.944z" data-original="#000000" class="" style="fill:#212533" data-old_color="#000000"/>
	<path d="M480.235,299.47c0-14.337-11.664-26.001-26.001-26.001c-14.336,0-25.999,11.664-25.999,26.001   c0,14.336,11.663,25.999,25.999,25.999C468.571,325.469,480.235,313.806,480.235,299.47z M454.234,310.469   c-6.064,0-10.999-4.934-10.999-10.999c0-6.066,4.935-11.001,10.999-11.001c6.066,0,11.001,4.935,11.001,11.001   C465.235,305.535,460.3,310.469,454.234,310.469z" data-original="#000000" class="" style="fill:#212533" data-old_color="#000000"/>
</g></g> </svg>
