<?xml version="1.0"?>
<svg xmlns="http://www.w3.org/2000/svg" viewBox="0 0 64 64" width="512px" height="512px" class=""><g><g id="Trolley"><path d="M11,46a5,5,0,0,0,5,5H57a4,4,0,0,0,4-4V45H11Z" style="fill:#616885" data-original="#B1D5FF" class="active-path" data-old_color="#626987"/><path d="M42,15V25H36V15H21V45H57V15ZM53,41H43V37H53Z" style="fill:#616885" data-original="#B1D5FF" class="active-path" data-old_color="#626987"/><path d="M61,44H58V15a1,1,0,0,0-1-1H21a1,1,0,0,0-1,1V44H16V7a5.006,5.006,0,0,0-5-5H3A1,1,0,0,0,2,3V7A1,1,0,0,0,3,8H9a1,1,0,0,1,1,1V46a6.006,6.006,0,0,0,6,6h2.54a6,6,0,1,0,8.92,0H44.54a6,6,0,1,0,8.92,0H57a5.006,5.006,0,0,0,5-5V45A1,1,0,0,0,61,44ZM41,16v8H37V16ZM22,16H35v9a1,1,0,0,0,1,1h6a1,1,0,0,0,1-1V16H56V44H22ZM9,6H4V4h7a3,3,0,0,1,3,3V44H12V9A3,3,0,0,0,9,6ZM27,56a4,4,0,1,1-4-4A4,4,0,0,1,27,56Zm26,0a4,4,0,1,1-4-4A4,4,0,0,1,53,56Zm7-9a3,3,0,0,1-3,3H16a4,4,0,0,1-4-4H60Z" style="fill:#212533" data-original="#1E81CE" class="" data-old_color="#1E81CE"/><path d="M31,40H25a1,1,0,0,0,0,2h6a1,1,0,0,0,0-2Z" style="fill:#212533" data-original="#1E81CE" class="" data-old_color="#1E81CE"/><path d="M31,37H25a1,1,0,0,0,0,2h6a1,1,0,0,0,0-2Z" style="fill:#212533" data-original="#1E81CE" class="" data-old_color="#1E81CE"/><path d="M35,37H34a1,1,0,0,0,0,2h1a1,1,0,0,0,0-2Z" style="fill:#212533" data-original="#1E81CE" class="" data-old_color="#1E81CE"/><path d="M31,34H25a1,1,0,0,0,0,2h6a1,1,0,0,0,0-2Z" style="fill:#212533" data-original="#1E81CE" class="" data-old_color="#1E81CE"/><path d="M35,34H34a1,1,0,0,0,0,2h1a1,1,0,0,0,0-2Z" style="fill:#212533" data-original="#1E81CE" class="" data-old_color="#1E81CE"/><path d="M35,40H34a1,1,0,0,0,0,2h1a1,1,0,0,0,0-2Z" style="fill:#212533" data-original="#1E81CE" class="" data-old_color="#1E81CE"/><path d="M53,36H43a1,1,0,0,0-1,1v4a1,1,0,0,0,1,1H53a1,1,0,0,0,1-1V37A1,1,0,0,0,53,36Zm-1,4H44V38h8Z" style="fill:#212533" data-original="#1E81CE" class="" data-old_color="#1E81CE"/><circle cx="23" cy="56" r="2" style="fill:#212533" data-original="#1E81CE" class="" data-old_color="#1E81CE"/><circle cx="49" cy="56" r="2" style="fill:#212533" data-original="#1E81CE" class="" data-old_color="#1E81CE"/></g></g> </svg>
