<?xml version="1.0"?>
<svg xmlns="http://www.w3.org/2000/svg" height="512px" viewBox="0 0 512 512" width="512px" class=""><g><path d="m512 256c0 141.386719-114.613281 256-256 256s-256-114.613281-256-256 114.613281-256 256-256 256 114.613281 256 256zm0 0" fill="#ff0335" data-original="#FF0335" class="" style="fill:#089970" data-old_color="#08976F"/><path d="m512 256c0-16.589844-1.597656-32.804688-4.609375-48.515625l-129.726563-129.722656h-243.328124v167.417969l-25.03125-25.820313c-3.5-3.863281-8.230469-6.273437-13.355469-6.417969-.710938-.019531-1.417969.007813-2.140625.070313-10.648438 1.019531-18.367188 11.539062-17.238282 23.507812l7.640626 80.511719c1.367187 14.382812 3.328124 30.777344 13.917968 41.257812l10.265625 10.0625c5.199219 5.953126 5.460938 9.34375 6.207031 17.21875l2.378907 28.230469-7.621094.589844 4.992187 54.863281c40.5625 27 89.265626 42.746094 141.648438 42.746094 141.386719 0 256-114.613281 256-256zm0 0" fill="#9a0011" data-original="#9A0011" class="" style="fill:#266345" data-old_color="#266244"/><path d="m191.359375 503.761719c-3.507813-.910157-6.988281-1.890625-10.429687-2.953125-20.878907-6.398438-40.628907-15.386719-58.859376-26.609375l-7.46875-88.628907c-1.050781-11.109374-1.132812-13.289062-15.492187-26.351562-11.449219-10.417969-13.488281-27.367188-14.898437-42.1875l-7.640626-80.511719c-1.128906-11.96875 6.589844-22.488281 17.238282-23.507812.722656-.0625 1.429687-.089844 2.140625-.070313 9.769531.277344 18.152343 8.757813 19.199219 19.917969l7.121093 75.121094c.140625 1.429687.789063 2.75 1.820313 3.648437l52.960937 46.542969c1.019531.886719 1.679688 2.207031 1.808594 3.648437zm0 0" fill="#ffdba9" data-original="#FFDBA9" class="" style="fill:#FFDBA9"/><path d="m209.851562 507.839844c-6.25-1.128906-12.410156-2.488282-18.492187-4.078125-3.507813-.910157-6.988281-1.890625-10.429687-2.953125l-12.070313-137.347656-27.128906-23.570313c-.058594-.050781-13.070313-11.371094-13.070313-11.371094-6.140625-5.339843-8.332031-16.058593-3.289062-22.460937 2.667968-3.410156 6.878906-4.929688 11.160156-4.808594 3.75.109375 7.558594 1.488281 10.4375 3.988281 0 0 36.371094 31.75 39 34.023438 4.089844 3.558593 9.703125 7.5 10.351562 14.417969.179688 1.839843 7.699219 88.082031 13.53125 154.160156zm0 0" fill="#ffc473" data-original="#FFC473" class=""/><path d="m215.050781 508.730469c-11.652343-1.859375-23.050781-4.519531-34.121093-7.921875-23.859376-7.308594-46.25-18.007813-66.578126-31.546875l-4.992187-54.871094 96.851563-7.492187zm0 0" fill="#00ffea" data-original="#00FFEA" class="" style="fill:#FF0335" data-old_color="#00FFEA"/><path d="m215.050781 508.730469c-11.652343-1.859375-23.050781-4.519531-34.121093-7.921875l-8.03125-91.339844 33.3125-2.570312zm0 0" fill="#00dfc1" data-original="#00DFC1" class="active-path" style="fill:#9A0011" data-old_color="#00DFC1"/><path d="m435.429688 236.519531-7.640626 80.511719c-1.410156 14.820312-3.449218 31.769531-14.898437 42.1875-14.359375 13.0625-14.441406 15.242188-15.492187 26.351562l-7.46875 88.628907c-18.230469 11.222656-37.980469 20.210937-58.859376 26.609375-3.441406 1.0625-6.921874 2.042968-10.429687 2.953125l12.5-141.941407c.128906-1.441406.789063-2.761718 1.808594-3.648437l52.960937-46.542969c1.03125-.898437 1.679688-2.21875 1.820313-3.648437l7.121093-75.121094c1.046876-11.160156 9.429688-19.640625 19.199219-19.917969.710938-.019531 1.417969.007813 2.140625.070313 10.648438 1.019531 18.367188 11.539062 17.238282 23.507812zm0 0" fill="#ffdba9" data-original="#FFDBA9" class="" style="fill:#FFDBA9"/><path d="m383.339844 328.519531s-13.011719 11.320313-13.070313 11.371094l-27.128906 23.570313-12.070313 137.347656c-3.441406 1.0625-6.921874 2.042968-10.429687 2.953125-6.082031 1.589843-12.242187 2.949219-18.492187 4.078125 5.832031-66.078125 13.351562-152.320313 13.53125-154.160156.648437-6.917969 6.261718-10.859376 10.351562-14.417969 2.628906-2.273438 39-34.023438 39-34.023438 2.878906-2.5 6.6875-3.878906 10.4375-3.988281 4.28125-.121094 8.492188 1.398438 11.160156 4.808594 5.042969 6.402344 2.851563 17.121094-3.289062 22.460937zm0 0" fill="#ffc473" data-original="#FFC473" class=""/><path d="m402.640625 414.390625-4.992187 54.871094c-20.328126 13.539062-42.71875 24.238281-66.578126 31.546875-11.070312 3.402344-22.46875 6.0625-34.121093 7.921875l8.839843-101.832031zm0 0" fill="#00ffea" data-original="#00FFEA" class="" style="fill:#FF0335" data-old_color="#00FFEA"/><path d="m339.101562 409.46875-8.03125 91.339844c-11.070312 3.402344-22.46875 6.0625-34.121093 7.921875l8.839843-101.832031zm0 0" fill="#00dfc1" data-original="#00DFC1" class="active-path" style="fill:#9A0011" data-old_color="#00DFC1"/><path d="m134.335938 77.761719h243.328124v214.238281h-243.328124zm0 0" fill="#ffb84d" data-original="#FFB84D" class="" style="fill:#F0BD7B" data-old_color="#F0BD7C"/><path d="m255.996094 77.757812h121.667968v214.242188h-121.667968zm0 0" fill="#ff8900" data-original="#FF8900" class="" style="fill:#D8A65F" data-old_color="#D7A55E"/><path d="m220.171875 77.761719h71.660156v61.996093h-71.660156zm0 0" fill="#ffec98" data-original="#FFEC98" class="" style="fill:#FFEC98" data-old_color="#7CFF00"/><path d="m255.996094 77.757812h35.832031v62h-35.832031zm0 0" fill="#ffdb2d" data-original="#FFDB2D" class="" style="fill:#FFC473" data-old_color="#FFB84D"/></g> </svg>
