<?xml version="1.0"?>
<svg xmlns="http://www.w3.org/2000/svg" height="512px" viewBox="0 0 512 512" width="512px" class=""><g><path d="m512 256c0 141.386719-114.613281 256-256 256s-256-114.613281-256-256 114.613281-256 256-256 256 114.613281 256 256zm0 0" fill="#ffec98" data-original="#FFEC98" class="" style="fill:#B6AB9C" data-old_color="#747064"/><path d="m512 256c0-25.191406-3.65625-49.527344-10.4375-72.519531l-98.625-99.089844c-5.410156-5.757813-13.074219-9.367187-21.546875-9.367187h-250.78125c-16.285156 0-29.609375 13.324218-29.609375 29.609374v302.730469c0 8.277344 3.445312 15.785157 8.96875 21.167969 0 0 33.234375 33.269531 72.796875 72.820312 23.207031 6.914063 47.78125 10.648438 73.234375 10.648438 141.386719 0 256-114.613281 256-256zm0 0" fill="#ffdb2d" data-original="#FFDB2D" class="" style="fill:#747064" data-old_color="#9F964F"/><path d="m381.390625 436.976562h-250.78125c-16.285156 0-29.609375-13.324218-29.609375-29.609374v-302.734376c0-16.285156 13.324219-29.609374 29.609375-29.609374h250.78125c16.285156 0 29.609375 13.324218 29.609375 29.609374v302.734376c0 16.285156-13.324219 29.609374-29.609375 29.609374zm0 0" fill="#004eb1" data-original="#004EB1" class="" style="fill:#1E354F" data-old_color="#131F2D"/><path d="m411 104.628906v302.742188c0 16.277344-13.320312 29.609375-29.609375 29.609375h-125.390625v-361.960938h125.390625c16.289063 0 29.609375 13.332031 29.609375 29.609375zm0 0" fill="#002d6b" data-original="#002D6B" class="" style="fill:#131435" data-old_color="#060810"/><path d="m122.714844 95.425781h266.570312v317.058594h-266.570312zm0 0" fill="#fff" data-original="#FFF" class=""/><path d="m256 95.421875h133.289062v317.058594h-133.289062zm0 0" fill="#fff5cb" data-original="#FFF5CB" class=""/><path d="m256.007812 163.734375-69.054687 27.464844v81.171875c0 24.125 8.800781 55.101562 69.054687 74.136718 60.25-19.035156 69.050782-50.011718 69.050782-74.136718s0-81.171875 0-81.171875zm0 0" fill="#00ad95" data-original="#00AD95" class="" style="fill:#BBAB5F" data-old_color="#BBAB60"/><path d="m325.058594 191.199219v81.179687c0 24.117188-8.800782 55.097656-69.050782 74.132813v-182.777344zm0 0" fill="#006659" data-original="#006659" class="" style="fill:#6D6D41" data-old_color="#9F964F"/><path d="m256.007812 154-78.101562 31.058594v87.3125c0 17.398437 4.484375 31.90625 13.710938 44.363281 12.308593 16.617187 32.480468 29.179687 61.664062 38.402344l2.726562.859375 2.726563-.859375c29.183594-9.222657 49.355469-21.785157 61.664063-38.402344 9.222656-12.457031 13.707031-26.964844 13.707031-44.363281v-87.3125zm60.003907 118.371094c0 20.917968-6.898438 47.0625-60.003907 64.628906-53.105468-17.566406-60.003906-43.710938-60.003906-64.628906v-75.035156l60.003906-23.863282 60.003907 23.863282zm0 0" fill="#00ffea" data-original="#00FFEA" class="" style="fill:#DBCB6A" data-old_color="#9F964F"/><path d="m256.007812 153.992188v19.484374l60.007813 23.855469v75.042969c0 20.917969-6.902344 47.058594-60.007813 64.628906v18.996094l2.726563-.867188c29.179687-9.21875 49.347656-21.777343 61.667969-38.398437 9.222656-12.457031 13.699218-26.96875 13.699218-44.355469v-87.324218zm0 0" fill="#00ceb4" data-original="#00CEB4" class="active-path" style="fill:#BBAB5F" data-old_color="#99995C"/><path d="m253.660156 293.769531-44.050781-38.785156 14.253906-16.1875 27.621094 24.316406 35.691406-41.777343 16.398438 14.007812zm0 0" fill="#fff" data-original="#FFF" class=""/><path d="m303.578125 235.34375-47.570313 55.675781v-33.203125l31.167969-36.488281zm0 0" fill="#ffec98" data-original="#FFEC98" class="" style="fill:#B6AB9C" data-old_color="#747064"/><path d="m122.714844 387.9375h266.570312v24.546875h-266.570312zm0 0" fill="#00ffea" data-original="#00FFEA" class="" style="fill:#DBCB6A" data-old_color="#9F964F"/><path d="m256 387.941406h133.289062v24.539063h-133.289062zm0 0" fill="#00ad95" data-original="#00AD95" class="" style="fill:#BBAB5F" data-old_color="#BBAB60"/><path d="m291.148438 131.902344h-70.296876c-15.324218 0-27.746093-12.421875-27.746093-27.746094v-29.132812h125.792969v29.132812c0 15.324219-12.425782 27.746094-27.75 27.746094zm0 0" fill="#ffb74f" data-original="#FFB74F" class="" style="fill:#FFB74F" data-old_color="#FF8900"/><path d="m318.898438 75.019531v29.140625c0 15.320313-12.429688 27.738282-27.75 27.738282h-35.148438v-56.878907zm0 0" fill="#ff8900" data-original="#FF8900" class="" style="fill:#FF8900" data-old_color="#747064"/></g> </svg>
