<?xml version="1.0"?>
<svg xmlns="http://www.w3.org/2000/svg" xmlns:xlink="http://www.w3.org/1999/xlink" version="1.1" id="Capa_1" x="0px" y="0px" viewBox="0 0 512.14 512.14" style="enable-background:new 0 0 512.14 512.14;" xml:space="preserve" width="512px" height="512px" class=""><g><g>
	<path style="fill:#EFEBEB" d="M501.931,110.862c-0.65-5.007-4.946-8.707-9.994-8.693c-131.026,0.345-206.194-64.45-228.375-86.997   c-3.923-3.988-10.319-3.951-14.242,0.037c-83.767,85.155-196.133,89.02-228.025,88.257c-5.111-0.122-9.475,3.646-10.129,8.716   C4.479,163.99-15.009,421.577,253.148,503.667c1.899,0.581,3.943,0.582,5.842,0.001   C527.763,421.387,508.574,162.014,501.931,110.862z" data-original="#857E87" class="" data-old_color="#efebeb"/>
	<path style="fill:#FFCA28" d="M259.72,463.268c-2.04,0.68-4.26,0.68-6.3,0C151.5,429.311,86.578,362.571,60.351,264.727   c-11.904-44.409-13.116-86.238-11.898-114.337c0.221-5.107,4.234-9.22,9.334-9.565c47.024-3.183,124.974-17.692,192.527-73.948   c3.664-3.051,8.954-3.148,12.67-0.16c34.698,27.896,98.416,66.117,192.332,72.623c5.095,0.353,9.114,4.447,9.343,9.55   c1.264,28.188,0.127,70.469-11.873,115.368C426.558,362.402,361.635,429.3,259.72,463.268z" data-original="#FFE07D" class="" data-old_color="#ffca28"/>
	<g>
		<path style="fill:#EBB810" d="M464.66,148.89c-0.229-5.102-4.248-9.197-9.343-9.55c-93.916-6.505-157.635-44.726-192.332-72.623    c-3.716-2.987-9.006-2.891-12.67,0.16c-7.98,6.646-16.107,12.702-24.309,18.233c35.312,27.642,96.962,78.095,188.222,84.416    c5.095,0.353,9.114,4.448,9.343,9.55c1.264,28.188,1.216,56.283-10.784,101.182c-22.568,84.446-73.809,145.735-152.586,182.843    C361.836,429.082,426.6,362.246,452.787,264.258C464.787,219.359,465.923,177.078,464.66,148.89z" data-original="#FFD064" class="" data-old_color="#EDB910"/>
	</g>
	<path style="fill:#EFEBEB" d="M304.399,326.214L283.668,264.1c14.173-9.236,23.351-25.494,22.567-43.847   c-1.126-26.345-23.134-47.448-49.503-47.531c-27.529-0.088-49.872,22.202-49.872,49.711c0,17.455,9.004,32.799,22.613,41.667   l-20.731,62.114c-2.161,6.476,2.658,13.166,9.486,13.166h76.686C301.741,339.38,306.561,332.69,304.399,326.214z" data-original="#857E87" class="" data-old_color="#efebeb"/>
	<path style="fill:#9E9B9B" d="M283.668,264.1c14.173-9.236,23.351-25.494,22.567-43.847   c-1.126-26.345-23.134-47.448-49.503-47.531c-5.309-0.017-10.422,0.806-15.223,2.331c19.364,6.176,33.818,23.983,34.725,45.2   c0.785,18.353-8.394,34.611-22.567,43.847l20.731,62.114c2.161,6.476-2.658,13.166-9.486,13.166h30   c6.827,0,11.647-6.69,9.486-13.166L283.668,264.1z" data-original="#5D5360" class="active-path" data-old_color="#9F9D9D"/>
</g><g>
	<path d="M507.486,100.682c-0.661-3.561-3.768-6.131-7.372-6.131c-0.061,0-0.123,0.001-0.185,0.002   c-82.833,2.023-143.102-22.995-179.069-44.331c-39.056-23.167-58.768-47.151-58.955-47.384c-2.843-3.517-8.33-3.686-11.377-0.34   c-24.376,26.741-53.853,48.232-87.611,63.878c-8.775,4.068-2.469,17.673,6.308,13.609c33.006-15.297,62.148-35.917,86.73-61.353   c8.723,9.129,27.444,26.713,56.613,44.109c36.328,21.667,96.221,46.927,177.986,46.925c1.043,0,2.089-0.004,3.138-0.012   c2.736,19.997,9.258,85.426-9.61,157.89c-13.207,50.721-36.119,94.813-68.1,131.054c-39.591,44.863-93.382,77.867-159.911,98.118   c-66.414-20.214-120.133-53.086-159.704-97.728c-31.98-36.079-54.917-79.964-68.173-130.435   c-18.91-71.997-12.531-137.313-9.778-157.639c17.316,0.61,64.139,0.167,118.04-17.912c9.171-3.074,4.4-17.302-4.77-14.221   C67.997,100.144,13.238,95.627,12.697,95.582c-3.852-0.343-7.334,2.295-8.042,6.097c-0.604,3.244-14.525,80.476,8.89,170.151   c13.806,52.874,37.819,98.919,71.373,136.856c41.898,47.373,98.76,82.045,169.004,103.051c1.389,0.416,2.908,0.417,4.297,0   c70.248-21.007,127.11-55.733,169.01-103.213c33.552-38.021,57.563-84.181,71.368-137.199   C522.01,181.406,508.09,103.936,507.486,100.682z" data-original="#000000" class="" style="fill:#212533" data-old_color="#000000"/>
	<path d="M369.084,399.093c-7.225,6.431,2.747,17.635,9.973,11.205c42.009-37.391,71.288-86.208,87.026-145.096   c13.78-51.564,14.12-99.703,11.978-131.006c-0.26-3.8-3.326-6.802-7.131-6.98c-107.716-5.056-177.761-51.806-209.926-79.223   c-2.84-2.419-7.024-2.386-9.824,0.08c-74.396,65.542-163.491,78.663-209.978,80.651c-3.821,0.163-6.907,3.175-7.163,6.991   c-2.085,31.064-1.693,78.831,12.017,129.977c28.069,104.72,97.95,175.855,207.701,211.432c1.491,0.482,3.135,0.482,4.625,0   c34.883-11.312,66.159-26.468,92.961-45.048c7.948-5.512-0.596-17.837-8.547-12.328c-25.005,17.336-54.172,31.577-86.728,42.35   C152.794,427.945,87.018,360.57,60.545,261.81c-12.238-45.658-13.43-88.587-11.928-118.451   c48.899-2.992,134.292-17.84,207.606-79.824c34.814,28.375,104.04,71.766,207.269,78.295c1.559,30.104,0.415,73.419-11.901,119.5   C436.624,317.335,408.864,363.686,369.084,399.093z" data-original="#000000" class="" style="fill:#212533" data-old_color="#000000"/>
	<path d="M197.762,343.764c1.409,1.957,3.674,3.116,6.085,3.116h104.446c2.411,0,4.676-1.159,6.085-3.116   c1.41-1.956,1.793-4.471,1.029-6.758L292.02,266.93c13.409-10.818,21.262-27.06,21.262-44.497   c0-31.546-25.665-57.211-57.211-57.211c-31.546,0-57.211,25.665-57.211,57.211c0,17.438,7.852,33.679,21.262,44.497l-23.389,70.076   C195.97,339.293,196.353,341.808,197.762,343.764z M236.087,266.474c1.08-3.236-0.161-6.795-3.02-8.657   c-12.027-7.838-19.208-21.065-19.208-35.384c0-23.275,18.936-42.211,42.211-42.211s42.211,18.936,42.211,42.211   c0,14.318-7.181,27.546-19.208,35.384c-2.858,1.862-4.1,5.421-3.02,8.657l21.829,65.406h-83.626L236.087,266.474z" data-original="#000000" class="" style="fill:#212533" data-old_color="#000000"/>
</g></g> </svg>
