<?xml version="1.0"?>
<svg xmlns="http://www.w3.org/2000/svg" xmlns:xlink="http://www.w3.org/1999/xlink" version="1.1" id="Capa_1" x="0px" y="0px" viewBox="0 0 473.55 473.55" style="enable-background:new 0 0 473.55 473.55;" xml:space="preserve" width="512px" height="512px"><g><g>
	<g>
		<path d="M75.211,244.723v-58.628c0-10.516-8.554-19.07-19.069-19.07h-37.08c-10.335,0-18.776,8.263-19.062,18.529    c1.186,10.351,13.175,115.501,14.995,152.579c0.548,11.167,8.752,19.589,19.083,19.589h10.986    c-3.068-5.68-4.813-12.174-4.813-19.07v-54.031C40.251,264.22,55.509,247.325,75.211,244.723z" data-original="#000000" class="active-path" data-old_color="#efebeb" fill="#efebeb"/>
		<path d="M412.11,338.653v-54.031c0-10.515-8.556-19.07-19.069-19.07H80.509c-10.515,0-19.07,8.555-19.07,19.07v54.031    c0,10.516,8.555,19.07,19.07,19.07h312.532C403.555,357.722,412.11,349.168,412.11,338.653z" data-original="#000000" class="active-path" data-old_color="#efebeb" fill="#efebeb"/>
		<path d="M417.407,167.025c-10.515,0-19.069,8.554-19.069,19.069v58.628c19.702,2.602,34.961,19.497,34.961,39.898v54.031    c0,6.895-1.744,13.39-4.813,19.07h10.986c10.33,0,18.534-8.422,19.081-19.589c1.82-37.078,13.81-142.228,14.997-152.579    c-0.286-10.267-8.728-18.529-19.063-18.529H417.407z" data-original="#000000" class="active-path" data-old_color="#efebeb" fill="#efebeb"/>
		<path d="M68.32,377.019c-3.925,1.251-8.003,1.892-12.178,1.892h-9.547l-15.436,58.755c-1.487,5.659,1.896,11.452,7.554,12.938    c0.903,0.237,1.808,0.35,2.7,0.35c4.697,0,8.989-3.148,10.239-7.905l17.297-65.843C68.74,377.143,68.528,377.086,68.32,377.019z" data-original="#000000" class="active-path" data-old_color="#efebeb" fill="#efebeb"/>
		<path d="M426.953,378.911h-9.546c-4.176,0-8.253-0.641-12.179-1.892c-0.208,0.066-0.42,0.125-0.629,0.188l17.297,65.842    c1.25,4.757,5.541,7.905,10.239,7.905c0.891,0,1.797-0.113,2.699-0.35c5.659-1.487,9.042-7.279,7.555-12.938L426.953,378.911z" data-original="#000000" class="active-path" data-old_color="#efebeb" fill="#efebeb"/>
	</g>
	<path d="M413.207,29.762c-4.386-4.554-10.537-7.167-16.877-7.167H77.219c-6.34,0-12.492,2.612-16.877,7.168   c-4.056,4.214-6.172,9.632-5.958,15.256c0.638,16.763,3.661,58.528,6.964,101.163c19.747,2.564,35.053,19.478,35.053,39.911v58.268   h280.75v-58.268c0-20.189,14.94-36.95,34.344-39.82c3.444-42.761,7.031-84.426,7.672-101.254   C419.38,39.395,417.264,33.976,413.207,29.762z M190.696,182.733h-6.356c-5.851,0-10.594-4.743-10.594-10.595   c0-5.851,4.743-10.594,10.594-10.594h6.356c5.851,0,10.594,4.743,10.594,10.594C201.29,177.99,196.547,182.733,190.696,182.733z    M190.696,104.335h-6.356c-5.851,0-10.594-4.743-10.594-10.594c0-5.852,4.743-10.595,10.594-10.595h6.356   c5.851,0,10.594,4.743,10.594,10.595C201.29,99.592,196.547,104.335,190.696,104.335z M289.21,182.733h-6.357   c-5.851,0-10.595-4.743-10.595-10.595c0-5.851,4.744-10.594,10.595-10.594h6.357c5.851,0,10.594,4.743,10.594,10.594   C299.804,177.99,295.061,182.733,289.21,182.733z M289.21,104.335h-6.357c-5.851,0-10.595-4.743-10.595-10.594   c0-5.852,4.744-10.595,10.595-10.595h6.357c5.851,0,10.594,4.743,10.594,10.595C299.804,99.592,295.061,104.335,289.21,104.335z" data-original="#000000" class="active-path" data-old_color="#efebeb" fill="#efebeb"/>
</g></g> </svg>
