<?xml version="1.0"?>
<svg xmlns="http://www.w3.org/2000/svg" id="Layer_1" data-name="Layer 1" viewBox="0 0 512 512" width="512px" height="512px" class=""><g><title>User Parcel</title><path d="M316.96,424.4a96,96,0,1,1,133.47,33.51l-.43-.69a50,50,0,0,0-100,0l-.43.69A96.166,96.166,0,0,1,316.96,424.4Zm114.29-74.68A31.25,31.25,0,1,0,400,380.97,31.255,31.255,0,0,0,431.25,349.72Z" style="fill:#EFEBEB" data-original="#6FE3FF" class="" data-old_color="#efebeb"/><path d="M450,457.22l.43.69a96.015,96.015,0,0,1-100.86,0l.43-.69a50,50,0,0,1,100,0Z" style="fill:#363D55" data-original="#E5D45A" class="" data-old_color="#373E56"/><circle cx="400" cy="349.72" r="31.25" style="fill:#292D41" data-original="#F8EC7D" class="" data-old_color="#2A2E42"/><path d="M400,135.55V280.22A96.008,96.008,0,0,0,316.96,424.4L208,487.3V246.38L399.98,135.54Z" style="fill:#C59C1A" data-original="#C16752" class="active-path" data-old_color="#C69D1B"/><polygon points="208 246.38 141.14 207.78 333.13 96.94 399.98 135.54 208 246.38" style="fill:#FFCA28" data-original="#E48E66" class="" data-old_color="#ffca28"/><polygon points="333.13 96.94 141.14 207.78 92.21 179.53 284.19 68.69 333.13 96.94" style="fill:#363D55" data-original="#E5D45A" class="" data-old_color="#373E56"/><polygon points="208 24.7 284.19 68.69 92.21 179.53 92.2 179.53 16.02 135.54 208 24.7" style="fill:#E2B322" data-original="#AF593C" class="" data-old_color="#E1B221"/><polygon points="208 246.38 208 487.3 16 376.45 16 135.55 16.02 135.54 92.2 179.53 92.2 339.28 115.45 329.68 140.8 358.48 140.8 207.98 141.14 207.78 208 246.38" style="fill:#FFCA28" data-original="#E48E66" class="" data-old_color="#ffca28"/><polygon points="141.14 207.78 140.8 207.98 140.8 358.48 115.45 329.68 92.2 339.28 92.2 179.53 92.21 179.53 141.14 207.78" style="fill:#292D41" data-original="#F8EC7D" class="" data-old_color="#2A2E42"/><path d="M407,273.463V135.55a7.03,7.03,0,0,0-3.535-6.081L211.5,18.638a7,7,0,0,0-7,0L12.617,129.422A7,7,0,0,0,9,135.55v240.9a7,7,0,0,0,3.5,6.062l192,110.85a7,7,0,0,0,7,0L314.626,433.83A102.994,102.994,0,0,0,454.11,463.864,103,103,0,0,0,407,273.463ZM99,191.648l35,19.976V339.933l-13.195-14.878a7.229,7.229,0,0,0-8.077-1.845L99,328.816Zm7.21-12.118L284.191,76.772l34.935,20.17L141.141,199.7Zm226.917-74.5L385.98,135.54,208,238.3l-52.859-30.518ZM215,250.421,393,147.653v125.81a103.013,103.013,0,0,0-85.412,148.264L215,475.176ZM208,32.783l62.191,35.906L92.205,171.45,30.019,135.541ZM23,147.654l62,35.917V339.28a7.136,7.136,0,0,0,9.822,6.47l18.653-7.691,22.057,25.046a7.016,7.016,0,0,0,5.264,2.375,7.548,7.548,0,0,0,2.572-.451A7.1,7.1,0,0,0,148,358.48V219.707l53,30.714V475.176L23,372.409ZM357.117,454.2a42.988,42.988,0,0,1,85.766,0,88.972,88.972,0,0,1-85.766,0Zm98.68-8.64a57,57,0,0,0-111.592-.011A89,89,0,1,1,489,376.22,88.382,88.382,0,0,1,455.8,445.563Z" style="fill:#212533" data-original="#63316D" class="" data-old_color="#63316D"/><path d="M244.854,293.881a7.183,7.183,0,0,0,6.292-3.687L255,283.248V343.42a7,7,0,1,0,14,0V273.051l5.69,6.155a6.929,6.929,0,0,0,9.836.284,7,7,0,0,0,.254-9.9l-17.915-18.96a7.01,7.01,0,0,0-11.267,1.492l-16.9,31.44a7,7,0,0,0,6.158,10.315Z" style="fill:#212533" data-original="#63316D" class="" data-old_color="#63316D"/><path d="M41,338.45a7,7,0,0,0-7,7v25.92a7,7,0,0,0,14,0V345.45A7,7,0,0,0,41,338.45Z" style="fill:#212533" data-original="#63316D" class="" data-old_color="#63316D"/><path d="M69,357.65a7,7,0,0,0-7,7V388a7,7,0,0,0,14,0V364.65A7,7,0,0,0,69,357.65Z" style="fill:#212533" data-original="#63316D" class="" data-old_color="#63316D"/><path d="M98,376.85a7,7,0,0,0-7,7v20.56a7,7,0,0,0,14,0V383.85A7,7,0,0,0,98,376.85Z" style="fill:#212533" data-original="#63316D" class="" data-old_color="#63316D"/><path d="M126,396.05a7,7,0,0,0-7,7v17.77a7,7,0,0,0,14,0V403.05A7,7,0,0,0,126,396.05Z" style="fill:#212533" data-original="#63316D" class="" data-old_color="#63316D"/><path d="M155,415.25a7,7,0,0,0-7,7v15.36a7,7,0,0,0,14,0V422.25A7,7,0,0,0,155,415.25Z" style="fill:#212533" data-original="#63316D" class="" data-old_color="#63316D"/><path d="M276.16,353.467l-31.89,18.41a7,7,0,1,0,7,12.125l31.89-18.41a7,7,0,1,0-7-12.125Z" style="fill:#212533" data-original="#63316D" class="" data-old_color="#63316D"/><path d="M400,311.47a38.25,38.25,0,1,0,38.25,38.25A38.293,38.293,0,0,0,400,311.47Zm0,62.5a24.25,24.25,0,1,1,24.25-24.25A24.277,24.277,0,0,1,400,373.97Z" style="fill:#212533" data-original="#63316D" class="" data-old_color="#63316D"/></g> </svg>
