<svg id="Calque_1" data-name="Calque 1" xmlns="http://www.w3.org/2000/svg" viewBox="0 0 560.45 490.59"><defs><style>.cls-1{fill:#f4e713;}.cls-2{fill:#fff;}.cls-3{fill:none;}</style></defs><title>logo</title><polygon class="cls-1" points="277.04 107.33 277.04 490.59 3.78 393.34 3.78 308.13 66.25 327.92 66.25 349.85 202.54 394.39 202.54 278.21 3.78 222.91 3.78 52.48 66.25 65.01 66.25 174.56 202.54 208.52 202.54 92.34 277.04 107.33"/><path class="cls-2" d="M295.05,170.88,18,213.33l277,53.08,277-53.08ZM156.53,213.33,295.05,191l138.52,22.33-138.52,25Z" transform="translate(-18.01 -170.88)"/><polygon class="cls-3" points="415.56 42.45 277.04 67.42 138.52 42.45 277.04 20.11 415.56 42.45"/><polygon class="cls-2" points="560.45 308.17 560.45 393.25 493.52 417.04 560.45 308.17"/><polygon class="cls-2" points="560.45 52.94 560.45 308.17 510.63 323.93 510.63 62.92 560.45 52.94"/><polygon class="cls-2" points="508.35 324.61 510.63 323.93 560.45 308.17 493.52 417.04 432.25 258.73 367.5 461.9 288.13 394.48 348.16 375.46 348.16 374.64 350.76 374.64 400.32 222 463.3 205.66 508.35 324.61"/><polygon class="cls-2" points="367.5 461.9 288.13 490.14 288.13 394.48 367.5 461.9"/><polygon class="cls-2" points="348.16 374.64 348.16 375.46 288.13 394.48 288.13 107.55 348.16 95.52 348.16 374.64"/></svg>