<?xml version="1.0"?>
<svg xmlns="http://www.w3.org/2000/svg" xmlns:xlink="http://www.w3.org/1999/xlink" version="1.1" id="Capa_1" x="0px" y="0px" viewBox="0 0 487.713 487.713" style="enable-background:new 0 0 487.713 487.713;" xml:space="preserve" width="512px" height="512px" class=""><g><g>
	<path d="M233.547,351.629V0h-123.09C93.954,0,80.575,13.377,80.575,29.881v321.749H233.547z M181.351,198.693h11.063   c5.693,0,10.309,4.616,10.309,10.31c0,5.693-4.615,10.309-10.309,10.309h-11.063c-5.693,0-10.31-4.615-10.31-10.309   C171.041,203.309,175.657,198.693,181.351,198.693z" data-original="#000000" class="active-path" data-old_color="#efebeb" fill="#efebeb"/>
	<path d="M80.575,372.249v60.59c0,16.503,13.379,29.881,29.882,29.881h4.532v14.685c0,5.694,4.616,10.309,10.31,10.309   c5.693,0,10.31-4.616,10.31-10.309v-14.685h216.496v14.685c0,5.694,4.616,10.309,10.31,10.309c5.693,0,10.31-4.615,10.31-10.309   v-14.685h4.532c16.503,0,29.882-13.379,29.882-29.882v-60.589L80.575,372.249z M259.836,427.667h-31.959   c-5.693,0-10.31-4.616-10.31-10.309c0-5.693,4.616-10.31,10.31-10.31h31.959c5.693,0,10.31,4.616,10.31,10.31   C270.146,423.051,265.53,427.667,259.836,427.667z" data-original="#000000" class="active-path" data-old_color="#efebeb" fill="#efebeb"/>
	<path d="M254.166,351.629l152.972,0V29.88c0-16.503-13.379-29.88-29.882-29.88h-123.09V351.629z M295.299,198.693h11.063   c5.693,0,10.31,4.616,10.31,10.31c0,5.694-4.616,10.309-10.31,10.309h-11.063c-5.693,0-10.31-4.615-10.31-10.309   C284.989,203.309,289.606,198.693,295.299,198.693z" data-original="#000000" class="active-path" data-old_color="#efebeb" fill="#efebeb"/>
</g></g> </svg>
