<?xml version="1.0"?>
<svg xmlns="http://www.w3.org/2000/svg" xmlns:xlink="http://www.w3.org/1999/xlink" version="1.1" id="Capa_1" x="0px" y="0px" viewBox="0 0 512 512" style="enable-background:new 0 0 512 512;" xml:space="preserve" width="512px" height="512px" class=""><g><g>
	<g>
		<path style="fill:#EFEBEB" d="M489.882,504.5H22.118c-8.074,0-14.618-6.545-14.618-14.618V22.118    C7.5,14.045,14.045,7.5,22.118,7.5h467.763c8.074,0,14.618,6.545,14.618,14.618v467.763    C504.5,497.955,497.955,504.5,489.882,504.5z" data-original="#E2A975" class="" data-old_color="#Efebeb"/>
		<path style="fill:#E0DBDB" d="M489.882,7.5h-70c8.073,0,14.618,6.545,14.618,14.618v467.763c0,8.073-6.545,14.618-14.618,14.618    h70c8.073,0,14.618-6.545,14.618-14.618V22.118C504.5,14.045,497.955,7.5,489.882,7.5z" data-original="#C38C66" class="" data-old_color="#DFDADA"/>
		<g>
			<polyline style="fill:#FFCA28" points="190.379,155 212.257,175 234.133,155 256.007,175 277.882,155 299.757,175 321.629,155      343.55,175.039 343.55,7.5 168.475,7.5 168.5,175 190.379,155 212.257,175 234.133,155 256.007,175 277.882,155 299.757,175      321.629,155    " data-original="#FFE07D" class="" data-old_color="#FFca28"/>
		</g>
		<g>
			<polygon style="fill:#EFBD20" points="299.55,7.5 299.55,174.811 299.757,175 321.629,155 343.55,175.039 343.55,7.5    " data-original="#FFD064" class="" data-old_color="#EEBC20"/>
		</g>
		<g>
			<path style="fill:#424D68" d="M220.851,447.5H93.149C75.946,447.5,62,433.554,62,416.351V311.649     c0-17.203,13.946-31.149,31.149-31.149h127.702c17.203,0,31.149,13.946,31.149,31.149v104.702     C252,433.554,238.054,447.5,220.851,447.5z" data-original="#C3DDFF" class="" data-old_color="#414C67"/>
			<path style="fill:#2F3449" d="M220.851,280.5h-40c17.203,0,31.149,13.946,31.149,31.149v104.702     c0,17.203-13.946,31.149-31.149,31.149h40c17.203,0,31.149-13.946,31.149-31.149V311.649     C252,294.446,238.054,280.5,220.851,280.5z" data-original="#A4CCFF" class="active-path" data-old_color="#14161F"/>
		</g>
	</g>
</g><g>
	<path d="M504.5,402.5c4.143,0,7.5-3.357,7.5-7.5V7.5c0-4.143-3.357-7.5-7.5-7.5H343.55H168.475H7.5C3.357,0,0,3.357,0,7.5v497   c0,4.143,3.357,7.5,7.5,7.5h497c4.143,0,7.5-3.357,7.5-7.5V435c0-9.673-15-9.673-15,0v62H15V15h145.975v58c0,9.673,15,9.673,15,0   V15H336.05v143.023l-9.359-8.559c-2.867-2.619-7.258-2.619-10.123,0l-16.811,15.373l-16.814-15.373   c-2.865-2.619-7.256-2.619-10.121,0l-16.813,15.373l-16.814-15.373c-2.864-2.619-7.255-2.619-10.121,0l-16.815,15.373   l-16.817-15.373c-2.864-2.621-7.255-2.618-10.121-0.001l-9.344,8.542V110c0-9.673-15-9.673-15,0v65.039   c0,3.321,2.197,6.228,5.381,7.171c0.7,0.208,1.412,0.308,2.117,0.308c1.919,0,3.78-0.74,5.181-2.066l16.726-15.29l16.817,15.374   c2.865,2.621,7.256,2.619,10.121,0l16.815-15.373l16.814,15.373c2.865,2.619,7.256,2.619,10.121,0l16.813-15.373l16.814,15.373   c2.865,2.619,7.257,2.619,10.122,0l16.811-15.372l16.81,15.372c0.07,0.064,0.144,0.118,0.216,0.178   c0.084,0.073,0.17,0.144,0.258,0.213c0.077,0.06,0.155,0.118,0.233,0.174c0.157,0.115,0.319,0.222,0.486,0.324   c0.015,0.009,0.031,0.019,0.046,0.028c1.131,0.685,2.453,1.086,3.872,1.086c4.143,0,7.5-3.357,7.5-7.5V15H497v380   C497,399.143,500.357,402.5,504.5,402.5z" data-original="#000000" class="" style="fill:#212533" data-old_color="#000000"/>
	<path d="M428.5,455c4.143,0,7.5-3.357,7.5-7.5V300.928l8.961,8.128c7.166,6.498,17.242-4.612,10.078-11.111l-21.5-19.5   c-2.842-2.578-7.339-2.551-10.147,0.064l-21.5,20c-7.052,6.562,3.105,17.599,10.217,10.982L421,301.22V447.5   C421,451.643,424.357,455,428.5,455z" data-original="#000000" class="" style="fill:#212533" data-old_color="#000000"/>
	<path d="M357.5,455c4.143,0,7.5-3.357,7.5-7.5V300.928l8.961,8.128c7.166,6.498,17.242-4.612,10.078-11.111l-21.5-19.5   c-2.842-2.578-7.339-2.551-10.147,0.064l-21.5,20c-7.052,6.562,3.105,17.599,10.217,10.982L350,301.22V447.5   C350,451.643,353.357,455,357.5,455z" data-original="#000000" class="" style="fill:#212533" data-old_color="#000000"/>
	<path d="M220.851,273H93.149C71.838,273,54.5,290.338,54.5,311.649v104.701C54.5,437.662,71.838,455,93.149,455h127.701   c21.312,0,38.649-17.338,38.649-38.649V311.649C259.5,290.338,242.162,273,220.851,273z M244.5,416.351   c0,13.04-10.609,23.649-23.649,23.649H93.149c-13.04,0-23.649-10.609-23.649-23.649V311.649C69.5,298.609,80.109,288,93.149,288   h127.701c13.04,0,23.649,10.609,23.649,23.649V416.351z" data-original="#000000" class="" style="fill:#212533" data-old_color="#000000"/>
	<path d="M204.571,331.349h-95.143c-9.673,0-9.673,15,0,15h95.143C214.244,346.349,214.244,331.349,204.571,331.349z" data-original="#000000" class="" style="fill:#212533" data-old_color="#000000"/>
	<path d="M156.143,381.651h-46.714c-9.673,0-9.673,15,0,15h46.714C165.815,396.651,165.815,381.651,156.143,381.651z" data-original="#000000" class="" style="fill:#212533" data-old_color="#000000"/>
</g></g> </svg>
