<?xml version="1.0"?>
<svg xmlns="http://www.w3.org/2000/svg" height="512px" viewBox="0 0 464 464" width="512px" class=""><g><path d="m232 0v176s64-76.640625 64-112c0-35.347656-28.652344-64-64-64zm0 0" fill="#ff4764" data-original="#FF4764" class="" style="fill:#485070" data-old_color="#474F6E"/><path d="m168 64c0 35.359375 64 112 64 112v-176c-35.347656 0-64 28.652344-64 64zm0 0" fill="#ff3051" data-original="#FF3051" class="" style="fill:#32384D" data-old_color="#31374C"/><path d="m168 208-168 256h59.273438l134-256zm0 0" fill="#ffcd00" data-original="#FFCD00" class="" style="fill:#FFCA28" data-old_color="#FFCa28"/><path d="m270.726562 208 134 256h59.273438l-168-256zm0 0" fill="#ffcd00" data-original="#FFCD00" class="" style="fill:#FFCA28" data-old_color="#FFCa28"/><path d="m270.726562 208h-77.453124l-134 256h345.453124zm0 0" fill="#58595b" data-original="#58595B" class="" style="fill:#191E31" data-old_color="#1A1E31"/><g fill="#a7a9ac"><path d="m224 232h16v16h-16zm0 0" data-original="#000000" class="active-path" style="fill:#EFEBEB" data-old_color="#efebeb"/><path d="m224 208h16v8h-16zm0 0" data-original="#000000" class="active-path" style="fill:#EFEBEB" data-old_color="#efebeb"/><path d="m224 264h16v24h-16zm0 0" data-original="#000000" class="active-path" style="fill:#EFEBEB" data-old_color="#efebeb"/><path d="m224 304h16v32h-16zm0 0" data-original="#000000" class="active-path" style="fill:#EFEBEB" data-old_color="#efebeb"/><path d="m224 360h16v40h-16zm0 0" data-original="#000000" class="active-path" style="fill:#EFEBEB" data-old_color="#efebeb"/><path d="m224 424h16v40h-16zm0 0" data-original="#000000" class="active-path" style="fill:#EFEBEB" data-old_color="#efebeb"/></g><path d="m208 56c0 13.253906 10.746094 24 24 24v-48c-13.253906 0-24 10.746094-24 24zm0 0" fill="#f1f2f2" data-original="#F1F2F2" class="" style="fill:#C3C0C0" data-old_color="#C4C1C1"/><path d="m232 32v48c13.253906 0 24-10.746094 24-24s-10.746094-24-24-24zm0 0" fill="#f9f9f9" data-original="#F9F9F9" class="" style="fill:#EFEBEB" data-old_color="#efebeb"/></g> </svg>
